<svg width="84" height="28" viewBox="0 0 84 28" fill="none" xmlns="http://www.w3.org/2000/svg">
<g clip-path="url(#clip0_766_135)">
<path d="M10.3454 0.00292969H11.0924C13.6856 0.0605031 16.2367 1.12561 18.0689 3.01114C17.3924 3.71641 16.7018 4.3929 16.0393 5.09817C15.0105 4.14821 13.7702 3.41415 12.4172 3.15507C10.4158 2.72327 8.25947 3.11189 6.58229 4.27775C4.75008 5.50119 3.50981 7.57383 3.24202 9.7904C2.94605 11.9782 3.55209 14.2811 4.94739 15.9795C6.28632 17.6348 8.32994 18.6711 10.444 18.7431C12.4172 18.8582 14.4749 18.2393 15.9125 16.8287C17.04 15.8356 17.5615 14.3243 17.7306 12.8562C15.391 12.8562 13.0514 12.8706 10.7118 12.8562V9.89116H20.5635C21.0709 13.0721 20.338 16.656 17.9702 18.9302C16.3917 20.5422 14.2071 21.4922 11.9803 21.6793C9.8239 21.8952 7.59706 21.4778 5.68028 20.4127C3.38296 19.1605 1.55075 17.0446 0.648732 14.5546C-0.196905 12.2661 -0.210999 9.67526 0.578263 7.37232C1.29705 5.27089 2.67826 3.41415 4.4541 2.11875C6.15947 0.837744 8.23128 0.13247 10.3454 0.00292969Z" fill="#3780FF"/>
<path d="M66.8613 0.750977H69.8774V21.3047C68.8768 21.3047 67.862 21.3191 66.8613 21.2903C66.8754 14.4534 66.8613 7.60221 66.8613 0.750977Z" fill="#38B137"/>
<path d="M27.2723 7.87573C29.1327 7.51589 31.1481 7.91891 32.6844 9.05598C34.0797 10.0635 35.0522 11.6468 35.3481 13.374C35.7287 15.3747 35.2495 17.5624 33.981 19.1457C32.6139 20.9161 30.373 21.8661 28.1884 21.7221C26.1871 21.607 24.2421 20.585 23.0582 18.9154C21.7193 17.0731 21.3951 14.5398 22.128 12.3808C22.8609 10.0635 24.9327 8.29313 27.2723 7.87573ZM27.6951 10.6105C26.934 10.812 26.2293 11.2582 25.722 11.8915C24.3548 13.5611 24.4394 16.2814 25.9475 17.8359C26.8072 18.7283 28.1038 19.1457 29.3018 18.901C30.4152 18.6995 31.3877 17.9367 31.9233 16.9291C32.8535 15.2163 32.5857 12.8558 31.1622 11.5172C30.2461 10.6536 28.9072 10.2938 27.6951 10.6105Z" fill="#FA3913"/>
<path d="M42.2112 7.87581C44.3394 7.4584 46.6649 8.06292 48.2575 9.58862C50.8508 11.9635 51.1327 16.4111 48.92 19.1458C47.581 20.873 45.4106 21.823 43.2683 21.7222C41.2246 21.6646 39.2092 20.6283 37.9971 18.9155C36.63 17.03 36.334 14.4392 37.1092 12.237C37.8844 9.99163 39.9139 8.27882 42.2112 7.87581ZM42.634 10.6105C41.873 10.8121 41.1683 11.2582 40.6609 11.8772C39.3079 13.518 39.3642 16.1952 40.8159 17.764C41.6757 18.6996 43.0146 19.1602 44.2548 18.9011C45.3542 18.6852 46.3408 17.9368 46.8763 16.9292C47.7924 15.202 47.5246 12.8415 46.0871 11.5029C45.171 10.6393 43.832 10.2939 42.634 10.6105Z" fill="#FCBD06"/>
<path d="M54.8816 8.71009C56.5024 7.67377 58.6588 7.38591 60.4064 8.27829C60.9561 8.52298 61.4071 8.94039 61.844 9.35779C61.8581 8.96917 61.844 8.56616 61.8581 8.16315C62.8024 8.17754 63.7467 8.16315 64.7051 8.17754V20.8725C64.691 22.7868 64.2118 24.8162 62.8588 26.2124C61.3789 27.7525 59.1098 28.2275 57.0661 27.9108C54.8816 27.5798 52.9789 25.9533 52.1333 23.8951C52.9789 23.4777 53.8668 23.1466 54.7406 22.758C55.2339 23.9383 56.2346 24.9458 57.489 25.1761C58.7433 25.4064 60.195 25.0897 61.0124 24.0246C61.8863 22.9307 61.8863 21.4338 61.844 20.0952C61.1957 20.7429 60.4487 21.3187 59.5467 21.5346C57.5876 22.0959 55.4312 21.405 53.9232 20.052C52.401 18.6991 51.499 16.612 51.5836 14.5394C51.6259 12.1933 52.9225 9.93353 54.8816 8.71009ZM57.799 10.5524C56.9393 10.6964 56.1359 11.1857 55.5863 11.8622C54.2614 13.4743 54.2614 16.0507 55.6004 17.634C56.3614 18.5695 57.5876 19.0877 58.7715 18.9582C59.8849 18.843 60.9138 18.1233 61.4635 17.1302C62.3937 15.4462 62.2386 13.1576 60.9843 11.6895C60.2091 10.7827 58.9688 10.3365 57.799 10.5524Z" fill="#3780FF"/>
<path d="M73.4992 9.44435C75.1905 7.8323 77.7979 7.28535 79.9684 8.13456C82.0261 8.92619 83.3368 10.9269 83.9992 12.9851C80.9408 14.2805 77.8966 15.5615 74.8382 16.8569C75.261 17.6773 75.9093 18.4258 76.7831 18.7281C78.0093 19.1742 79.4751 19.0159 80.5039 18.1811C80.9127 17.8645 81.2368 17.447 81.5469 17.044C82.3221 17.5766 83.0972 18.0947 83.8724 18.6273C82.7731 20.3113 80.9268 21.4916 78.9395 21.6787C76.7408 21.9522 74.4013 21.0886 72.9778 19.3326C70.6382 16.5691 70.8637 11.9344 73.4992 9.44435ZM75.0073 12.1071C74.5281 12.8124 74.3308 13.676 74.3449 14.5252C76.3885 13.6616 78.4321 12.798 80.4757 11.92C80.1375 11.114 79.32 10.6246 78.4885 10.4951C77.1496 10.2504 75.7543 10.9844 75.0073 12.1071Z" fill="#FA3913"/>
</g>
<defs>
<clipPath id="clip0_766_135">
<rect width="84" height="28" fill="white"/>
</clipPath>
</defs>
</svg>
