<svg width="65" height="19" viewBox="0 0 65 19" fill="none" xmlns="http://www.w3.org/2000/svg">
<g clip-path="url(#clip0_316_1263)">
<path d="M47.2742 14.1047C48.4348 14.1047 49.3756 13.1686 49.3756 12.0138C49.3756 10.859 48.4348 9.92285 47.2742 9.92285C46.1137 9.92285 45.1729 10.859 45.1729 12.0138C45.1729 13.1686 46.1137 14.1047 47.2742 14.1047Z" fill="#E62415"/>
<path d="M16.6857 0.174805H19.4665V18.0185H16.6857V0.174805ZM29.5942 12.5161C29.5942 15.283 27.319 15.5031 26.6238 15.5031C24.8858 15.5031 24.633 13.8838 24.633 12.9091V6.00743H21.8365V12.8934C21.8207 14.607 22.3105 16.0219 23.2585 16.9652C24.1194 17.7289 25.2163 18.1777 26.368 18.2377C27.5198 18.2978 28.6578 17.9654 29.5942 17.2954V18.0185H32.3908V6.00743H29.5942V12.5161ZM38.4264 1.96704H35.6298V6.00743H33.6864V8.63289H35.6298V18.0185H38.4264V8.63289H40.7174V6.00743H38.4264V1.96704ZM49.7707 14.607C49.1387 15.173 48.3013 15.4874 47.3849 15.4874C46.9194 15.5005 46.4561 15.4187 46.0235 15.247C45.5909 15.0752 45.1983 14.8172 44.8697 14.4888C44.5411 14.1603 44.2835 13.7685 44.1129 13.3373C43.9422 12.9061 43.8621 12.4447 43.8773 11.9815C43.8773 9.95349 45.3151 8.53857 47.3849 8.53857C48.2855 8.53857 49.1387 8.83727 49.7865 9.40324L50.2289 9.78055L52.1881 7.83111L51.6983 7.39091C50.5119 6.33794 48.9747 5.76088 47.3849 5.77161C43.7509 5.77161 41.1124 8.38135 41.1124 11.9658C41.0931 12.7922 41.2419 13.6139 41.5498 14.3815C41.8578 15.1492 42.3186 15.847 42.9046 16.4329C43.4905 17.0189 44.1894 17.4809 44.9594 17.7912C45.7293 18.1015 46.5544 18.2537 47.3849 18.2386C49.0439 18.2386 50.5923 17.657 51.7299 16.6036L52.2039 16.1634L50.2131 14.214L49.7707 14.607ZM62.6792 7.06076C61.8183 6.2971 60.7214 5.84825 59.5696 5.78823C58.4178 5.72821 57.2799 6.06061 56.3435 6.73061V0.174805H53.5469V18.0185H56.3435V11.5256C56.3435 8.75867 58.6187 8.53857 59.3139 8.53857C61.0518 8.53857 61.3046 10.1579 61.3046 11.1326V18.0343H64.1012V11.1326C64.1856 9.64181 63.6745 8.17826 62.6792 7.06076ZM12.5619 13.7423C12.0178 14.2985 11.3666 14.7397 10.6472 15.0395C9.92774 15.3393 9.15491 15.4917 8.37493 15.4874C5.13595 15.4874 2.78176 12.9563 2.78176 9.48185C2.78176 5.99171 5.13595 3.46057 8.37493 3.46057C9.93912 3.46057 11.4243 4.0737 12.5461 5.18992L12.9885 5.63012L14.9319 3.69639L14.5053 3.25619C13.7036 2.44487 12.7467 1.80152 11.6911 1.3641C10.6355 0.92668 9.5026 0.704045 8.35913 0.709331C3.60336 0.709331 0.000976562 4.48246 0.000976562 9.49757C0.000976562 14.4812 3.60336 18.2544 8.35913 18.2544C10.7133 18.2544 12.8937 17.3425 14.5053 15.6918L14.9319 15.2516L13.0043 13.2864L12.5619 13.7423Z" fill="white"/>
</g>
<defs>
<clipPath id="clip0_316_1263">
<rect width="64.1003" height="18.0796" fill="white" transform="translate(0.000976562 0.174805)"/>
</clipPath>
</defs>
</svg>
