<svg width="32" height="32" viewBox="0 0 32 32" fill="none" xmlns="http://www.w3.org/2000/svg">
<mask id="mask0_2089_2479" style="mask-type:alpha" maskUnits="userSpaceOnUse" x="0" y="0" width="32" height="32">
<rect width="32" height="32" fill="#D9D9D9"/>
</mask>
<g mask="url(#mask0_2089_2479)">
<g clip-path="url(#clip0_2089_2479)">
<path d="M24.0299 10.8325V7.07443C24.5265 6.84232 24.947 6.47394 25.2424 6.01215C25.5378 5.55037 25.6959 5.01418 25.6985 4.466V4.37978C25.6985 2.78148 24.4028 1.4858 22.8046 1.4858H22.7183C21.12 1.4858 19.8243 2.78148 19.8243 4.37978V4.466C19.8268 5.01418 19.985 5.55037 20.2804 6.01215C20.5758 6.47394 20.9963 6.84232 21.4929 7.07443V10.8325C20.0656 11.051 18.7213 11.6429 17.5963 12.5481L7.28968 4.52026C7.36317 4.25496 7.4015 3.98214 7.40583 3.70831C7.40709 3.06335 7.21704 2.4325 6.85972 1.89556C6.5024 1.35862 5.99387 0.939718 5.39844 0.691836C4.80301 0.443954 4.14744 0.37823 3.51466 0.502979C2.88187 0.627727 2.3003 0.937342 1.8435 1.39266C1.3867 1.84798 1.0752 2.42855 0.9484 3.06092C0.8216 3.6933 0.885197 4.34908 1.13115 4.94531C1.3771 5.54154 1.79435 6.05143 2.33012 6.41049C2.8659 6.76955 3.49613 6.96164 4.14109 6.96248C4.70532 6.95982 5.25898 6.80918 5.74678 6.52562L15.8958 14.4231C14.0299 17.2418 14.0799 20.9154 16.0215 23.6825L12.9347 26.7702C12.6851 26.6905 12.4253 26.6481 12.1633 26.6445C10.685 26.6458 9.48736 27.8447 9.48774 29.323C9.48812 30.8012 10.6865 31.9994 12.1647 31.9998C13.643 32.0002 14.8419 30.8026 14.8432 29.3243C14.8397 29.0624 14.7973 28.8024 14.7173 28.553L17.771 25.4981C20.4996 27.5986 24.247 27.7796 27.1653 25.9518C30.0835 24.1239 31.5562 20.673 30.857 17.3014C30.1578 13.9297 27.4343 11.3493 24.0299 10.8325ZM22.7641 23.1923C22.2 23.2075 21.6385 23.1095 21.1128 22.9041C20.5872 22.6987 20.108 22.39 19.7036 21.9964C19.2992 21.6027 18.9778 21.132 18.7583 20.6121C18.5389 20.0921 18.4258 19.5335 18.4258 18.9691C18.4258 18.4048 18.5389 17.8462 18.7583 17.3262C18.9778 16.8063 19.2992 16.3356 19.7036 15.9419C20.108 15.5483 20.5872 15.2396 21.1128 15.0342C21.6385 14.8288 22.2 14.7308 22.7641 14.746C25.0376 14.8256 26.8398 16.6911 26.8411 18.9661C26.8421 21.2408 25.0418 23.1082 22.7683 23.1901" fill="#FF7A59"/>
</g>
</g>
<defs>
<clipPath id="clip0_2089_2479">
<rect width="32" height="32" fill="white"/>
</clipPath>
</defs>
</svg>
