<svg width="32" height="32" viewBox="0 0 32 32" fill="none" xmlns="http://www.w3.org/2000/svg">
<mask id="mask0_970_1286" style="mask-type:alpha" maskUnits="userSpaceOnUse" x="0" y="0" width="32" height="32">
<rect width="32" height="32" fill="#D9D9D9"/>
</mask>
<g mask="url(#mask0_970_1286)">
<path d="M28.9992 7.00195C27.8742 7.00195 26.8992 7.62673 26.3867 8.53889L26.3242 8.66385L23.9742 13.2872L20.9992 19.1475L22.9492 22.9836L23.0617 23.196C23.3617 23.7209 23.8117 24.1582 24.3617 24.4206C24.9117 24.1457 25.3617 23.7209 25.6617 23.196L25.7742 22.9836L31.6117 11.4878L31.7492 11.2129C31.9117 10.8381 31.9992 10.4382 31.9992 10.0009C31.9992 8.33897 30.6617 7.00195 28.9992 7.00195ZM10.9867 12.5749L9.04922 8.75131L8.93672 8.53889C8.63672 8.01408 8.18672 7.57674 7.63672 7.31434C7.08672 7.58924 6.63672 8.01408 6.33672 8.53889L6.23672 8.75131L0.399219 20.2471L0.261719 20.522C0.0992187 20.8969 0.0117188 21.2967 0.0117188 21.7341C0.0117188 23.3835 1.34922 24.733 3.01172 24.733C4.13672 24.733 5.11172 24.1082 5.62422 23.196L5.68672 23.0711L8.03672 18.4478L10.9992 12.5874L10.9867 12.5749Z" fill="#FF5000"/>
<path d="M29 7.00195C27.875 7.00195 26.8875 7.62673 26.3875 8.53889L26.325 8.66385L23.975 13.2872L21 19.1475L22.95 22.9836L23.0625 23.196C23.3625 23.7209 23.8125 24.1582 24.3625 24.4206C24.9125 24.1457 25.3625 23.7209 25.6625 23.196L25.775 22.9836L31.6125 11.4878L31.75 11.2129C31.9125 10.8381 32 10.4382 32 10.0009C32 8.33897 30.65 7.00195 29 7.00195Z" fill="url(#paint0_linear_970_1286)"/>
<path d="M3 24.7331C4.125 24.7331 5.1125 24.1083 5.6125 23.1962L5.675 23.0712L8.025 18.4479L11 12.5875L9.05 8.75143L8.9375 8.53901C8.6375 8.0142 8.1875 7.57686 7.6375 7.31445C7.0875 7.58935 6.6375 8.0142 6.3375 8.53901L6.2375 8.75143L0.4 20.2472L0.25 20.5346C0.0875 20.9095 0 21.3093 0 21.7467C0 23.3961 1.3375 24.7331 3 24.7331Z" fill="url(#paint1_linear_970_1286)"/>
<path d="M10.9867 12.5749L9.04922 8.75131L8.93672 8.53889C8.63672 8.01408 8.18672 7.57674 7.63672 7.31434C7.81172 7.22687 8.01172 7.1519 8.19922 7.10192C8.43672 7.03944 8.69922 7.00195 8.94922 7.00195H13.0492C14.1742 7.01445 15.1492 7.62673 15.6617 8.53889L15.7492 8.75131L21.0117 19.16L22.9492 22.9836L23.0617 23.196C23.3617 23.7209 23.8117 24.1582 24.3617 24.4206C24.1867 24.5081 23.9867 24.583 23.7992 24.633C23.5617 24.6955 23.2992 24.733 23.0367 24.733H18.9617C17.8367 24.7205 16.8617 24.1082 16.3492 23.196L16.2367 22.9836L10.9867 12.5749Z" fill="#FF8C44"/>
</g>
<defs>
<linearGradient id="paint0_linear_970_1286" x1="167.542" y1="1660.82" x2="1415.05" y2="594.304" gradientUnits="userSpaceOnUse">
<stop stop-color="#D4202C"/>
<stop offset="0.04166" stop-color="#D82D2B" stop-opacity="0.958"/>
<stop offset="0.176" stop-color="#E25226" stop-opacity="0.824"/>
<stop offset="0.3167" stop-color="#EB7123" stop-opacity="0.683"/>
<stop offset="0.4635" stop-color="#F28920" stop-opacity="0.536"/>
<stop offset="0.6188" stop-color="#F69A1E" stop-opacity="0.381"/>
<stop offset="0.7886" stop-color="#F9A41D" stop-opacity="0.211"/>
<stop offset="1" stop-color="#FAA71D" stop-opacity="0"/>
</linearGradient>
<linearGradient id="paint1_linear_970_1286" x1="952.864" y1="95.1045" x2="-294.66" y2="1161.65" gradientUnits="userSpaceOnUse">
<stop stop-color="#D4202C"/>
<stop offset="0.04166" stop-color="#D82D2B" stop-opacity="0.958"/>
<stop offset="0.176" stop-color="#E25226" stop-opacity="0.824"/>
<stop offset="0.3167" stop-color="#EB7123" stop-opacity="0.683"/>
<stop offset="0.4635" stop-color="#F28920" stop-opacity="0.536"/>
<stop offset="0.6188" stop-color="#F69A1E" stop-opacity="0.381"/>
<stop offset="0.7886" stop-color="#F9A41D" stop-opacity="0.211"/>
<stop offset="1" stop-color="#FAA71D" stop-opacity="0"/>
</linearGradient>
</defs>
</svg>
