<svg width="30" height="31" viewBox="0 0 30 31" fill="none" xmlns="http://www.w3.org/2000/svg">
<path d="M28 0.5H2C0.89543 0.5 0 1.39543 0 2.5V28.5C0 29.6046 0.89543 30.5 2 30.5H28C29.1046 30.5 30 29.6046 30 28.5V2.5C30 1.39543 29.1046 0.5 28 0.5Z" fill="#335EEA"/>
<path fill-rule="evenodd" clip-rule="evenodd" d="M20.706 14.2614C20.1328 13.9951 19.4524 14.244 19.1861 14.8172C18.9199 15.3904 19.1688 16.0709 19.742 16.3371C20.3152 16.6033 20.9957 16.3545 21.2619 15.7813C21.5281 15.2081 21.2793 14.5276 20.706 14.2614ZM18.7192 14.6003C19.1052 13.7692 20.0918 13.4084 20.9229 13.7944C21.754 14.1804 22.1148 15.1671 21.7288 15.9982C21.3428 16.8293 20.3562 17.1901 19.5251 16.8041C18.694 16.4181 18.3332 15.4314 18.7192 14.6003Z" fill="white"/>
<path d="M13.736 20.1301C16.4296 20.7495 18.0758 20.502 18.5335 20.2159C18.6479 20.3304 18.8291 20.5068 19.1421 20.9024C19.8206 21.7604 19.7634 22.9903 19.7348 23.3049C20.1639 23.8198 21.1044 24.1596 21.2794 24.3346C21.451 24.5063 21.4683 24.6573 20.9362 24.7637C20.5071 24.8495 19.22 24.7482 18.9625 24.5843C18.7051 24.4205 18.1982 23.5625 17.3401 23.4445C16.482 23.3266 16.2817 22.9333 15.9671 22.7044C15.4236 22.4184 14.5004 22.018 13.2991 22.018C12.0978 22.018 10.9043 22.7044 10.3895 23.0477C9.97754 23.3223 9.40902 23.5052 9.09438 23.5624C9.09438 23.5624 8.49371 24.4205 7.80723 24.6779C7.12075 24.9353 5.57617 24.7637 5.57617 24.4205C5.57617 24.0772 6.86332 23.6482 7.12075 23.3907C7.37818 23.1333 7.26652 22.7512 7.38609 21.7605C7.53136 20.5568 8.44415 19.7597 8.75115 19.5295C9.09439 19.272 9.44557 18.6714 9.61719 18.3281C9.84602 18.6428 11.4971 19.6153 13.736 20.1301Z" fill="white"/>
<path fill-rule="evenodd" clip-rule="evenodd" d="M19.7846 16.741C19.8445 16.612 19.7885 16.4589 19.6596 16.399C19.5306 16.3392 19.3776 16.3951 19.3177 16.5241L19.1309 16.9263C19.146 16.9343 19.1603 16.9408 19.1726 16.9438C19.2197 16.9552 19.4931 17.0996 19.5353 17.1548C19.5491 17.1728 19.5591 17.1914 19.5666 17.2104L19.7846 16.741Z" fill="white"/>
<path fill-rule="evenodd" clip-rule="evenodd" d="M9.56262 15.6723C9.43577 16.0832 9.40595 16.5719 9.53223 17.1275C9.81826 17.7282 11.1546 18.6721 13.9006 19.3586C14.7587 19.5731 18.0274 20.1137 18.0274 19.3586C18.0274 18.6035 17.5125 17.9856 16.9977 17.9856C16.9864 17.9856 16.9751 17.9856 16.9638 17.9857C16.5447 17.9861 16.1106 17.9866 16.3112 17.385C16.5686 16.6127 17.5046 14.639 19.564 13.0945C19.8666 12.8928 20.1099 12.8392 20.313 12.7945C20.4554 12.7632 20.5781 12.7362 20.6875 12.6655C21.1086 12.3222 21.4426 11.2239 20.6875 10.9493C20.1557 10.7559 19.2381 11.0902 18.5221 11.4547C18.3693 14.421 15.9158 16.7791 12.9115 16.7791C11.6566 16.7791 10.4978 16.3677 9.56262 15.6723Z" fill="white"/>
<path fill-rule="evenodd" clip-rule="evenodd" d="M13.0721 16.0906C16.0384 16.0906 18.4431 13.6859 18.4431 10.7196C18.4431 7.75329 16.0384 5.34863 13.0721 5.34863C10.1058 5.34863 7.70117 7.75329 7.70117 10.7196C7.70117 13.6859 10.1058 16.0906 13.0721 16.0906ZM10.2878 9.91438C9.43934 9.8028 8.67755 10.4585 8.67755 11.3142C8.67755 12.1422 9.39317 12.7894 10.2183 12.7204C11.1833 12.6397 12.3725 12.5558 13.072 12.5631C13.7703 12.5705 14.9565 12.6533 15.9207 12.7298C16.7508 12.7957 17.4664 12.1427 17.4664 11.31C17.4664 10.4523 16.7093 9.79144 15.8581 9.89724C14.8407 10.0237 13.6181 10.163 13.072 10.1761C12.5262 10.1891 11.3047 10.0482 10.2878 9.91438Z" fill="white"/>
<path d="M12.2182 11.6596C11.3637 11.5376 10.2651 11.2934 9.59375 10.9883C9.59375 10.9883 9.95995 11.6596 10.6924 11.8427C11.4248 12.0258 12.2182 11.6596 12.2182 11.6596Z" fill="white"/>
<path d="M13.8047 11.6596C14.6591 11.5376 15.7577 11.2934 16.4291 10.9883C16.4291 10.9883 16.0629 11.6596 15.3305 11.8427C14.5981 12.0258 13.8047 11.6596 13.8047 11.6596Z" fill="white"/>
<path d="M17.3688 6.69115C16.8257 6.76575 16.3667 6.97089 16.2051 7.06413L16.593 7.43712C16.9809 7.11076 17.9208 7.21333 18.6779 7.01751C19.13 6.90059 19.8093 6.28709 20.0841 5.94519C19.4247 5.94519 19.0982 5.44788 19.0174 5.19922C18.9689 5.30801 18.8219 5.7214 18.6668 5.94519C18.4728 6.22492 18.0476 6.59791 17.3688 6.69115Z" fill="white"/>
<path d="M19.0394 7.31584C17.7533 7.1942 16.9121 7.50169 16.6523 7.67064L16.9933 8.17751C17.6169 7.89367 18.4872 8.26199 18.8445 8.48163C18.5717 7.99504 18.8607 7.50169 19.0394 7.31584Z" fill="white"/>
<path d="M22.9438 9.87295C22.0378 10.0986 21.1395 10.7471 20.8037 11.0432C20.8037 11.0432 19.9776 11.6094 20.5783 11.9526C21.1789 12.2959 21.6321 12.342 21.9304 12.1473C22.2287 11.9526 23.8499 9.64729 22.9438 9.87295Z" fill="white"/>
<path d="M18.9599 19.1863C18.7293 19.2109 18.4248 19.1451 18.1897 19.1007L18.0181 19.2722C17.9818 19.2779 17.9022 19.4309 17.8746 19.408C17.8393 19.3788 17.9058 19.2529 17.8746 19.2122L17.7667 19.071C17.6632 18.9356 17.5528 18.7938 17.4606 18.65C17.4338 18.6081 17.4211 18.5638 17.3918 18.522C17.374 18.4967 17.3857 18.4532 17.3823 18.4231C17.3733 18.3436 17.3133 18.3195 17.3316 18.2425C17.3659 18.0981 17.4654 18.1655 17.5891 18.0709C17.6859 17.997 17.8465 17.8135 17.9323 17.6419C18.0181 17.4703 18.1039 17.2987 18.1899 17.1596C18.2687 17.064 18.4596 16.8928 18.593 16.9728C18.652 16.9958 18.4917 17.3893 18.5442 17.4249C18.6209 17.4769 18.9316 17.1705 19.016 17.2103C19.0478 17.2128 19.1254 17.2757 19.1724 17.2872C19.2195 17.2987 19.5075 17.3548 19.5351 17.4982C19.5484 17.5675 19.6485 17.7276 19.6485 18.1567C19.643 18.4893 19.5254 18.8554 19.4769 18.9289C19.3831 19.0711 19.1085 19.1666 18.9599 19.1863Z" fill="white"/>
</svg>
