<svg width="32" height="32" viewBox="0 0 32 32" fill="none" xmlns="http://www.w3.org/2000/svg">
<path d="M3.12358 0.925069C3.55856 0.659705 4.01176 0.451583 4.48871 0.297012C4.75337 0.211235 5.0233 0.145897 5.29705 0.0919062C5.64663 0.0229528 5.99745 -7.46861e-05 6.35243 1.81872e-07C12.8603 0.0011232 19.3683 0.00071677 25.8762 0.00119806C26.0674 0.00121946 26.2566 0.0246318 26.4464 0.0500655C26.847 0.103724 27.2361 0.202037 27.6161 0.334126C27.9576 0.452781 28.2878 0.597982 28.6057 0.773643C28.9615 0.970226 29.2946 1.19715 29.6101 1.45184C29.8434 1.64014 30.0606 1.84673 30.2608 2.06865C30.5481 2.38725 30.8165 2.72176 31.0396 3.09059C31.3464 3.59798 31.5933 4.13139 31.7483 4.70488C31.8063 4.91971 31.8606 5.1358 31.9077 5.35327C31.9345 5.47714 31.9414 5.60521 31.9605 5.73091C32.0201 6.12384 31.9945 6.51938 31.9946 6.91374C31.9962 13.227 31.9962 19.5403 31.9935 25.8536C31.9934 26.0366 31.9602 26.2196 31.9404 26.4024C31.8898 26.87 31.7598 27.3182 31.5998 27.7579C31.4436 28.1869 31.239 28.5924 30.9954 28.9793C30.6241 29.5691 30.165 30.081 29.6337 30.5289C29.3234 30.7904 28.9879 31.016 28.6327 31.2134C28.2687 31.4157 27.8885 31.5799 27.4938 31.7089C27.2365 31.793 26.9753 31.8666 26.7058 31.9059C26.5388 31.9302 26.3734 31.9655 26.2061 31.9874C26.1077 32.0002 26.0072 31.9996 25.9077 31.9996C19.2999 32.0001 12.6922 32.0002 6.08453 31.9992C5.9043 31.9992 5.72568 31.9744 5.54657 31.9505C5.14641 31.8972 4.75804 31.7979 4.37792 31.6671C3.91101 31.5065 3.46805 31.2942 3.05081 31.0281C2.79886 30.8675 2.56257 30.6877 2.33214 30.4975C1.92381 30.1605 1.56499 29.7782 1.25217 29.3528C0.977601 28.9795 0.746033 28.581 0.556563 28.1565C0.372086 27.7432 0.229655 27.3173 0.134102 26.8761C0.0893303 26.6694 0.0567059 26.4593 0.0326252 26.2491C0.0120625 26.0697 0.00343317 25.888 0.00340109 25.7073C0.0020003 19.2549 0.0033477 12.8026 7.77171e-07 6.35028C-0.000255856 5.85357 0.0630467 5.36839 0.187931 4.89031C0.356025 4.24688 0.610135 3.63915 0.964834 3.07511C1.1332 2.80738 1.31389 2.54874 1.52561 2.31281C1.632 2.19425 1.73193 2.0695 1.84301 1.95558C2.21876 1.57023 2.63248 1.23104 3.09142 0.948418C3.10047 0.942856 3.10863 0.935861 3.12358 0.925069ZM5.75529 22.5501C6.1983 23.5557 6.84347 24.4051 7.73123 25.0566C9.1844 26.1229 10.8041 26.4885 12.5771 26.1684C12.6663 26.1522 12.7199 26.1715 12.7793 26.2364C13.321 26.8269 13.9571 27.2898 14.6847 27.6252C15.7929 28.136 16.9542 28.2938 18.1589 28.1224C19.4974 27.9319 20.6486 27.3535 21.6115 26.4065C22.2829 25.7461 22.7735 24.9674 23.0804 24.076C23.1155 23.974 23.1655 23.9264 23.2739 23.9013C24.4774 23.6226 25.5123 23.0388 26.3472 22.1285C27.4872 20.8857 28.0508 19.4155 28.0097 17.7229C27.9861 16.7538 27.7348 15.8443 27.2777 14.9909C27.0597 14.5838 26.797 14.2073 26.4913 13.8614C26.4484 13.8128 26.4359 13.7709 26.4584 13.709C26.4898 13.622 26.5126 13.5318 26.5362 13.4422C26.8366 12.3029 26.8166 11.1678 26.4579 10.0466C26.0505 8.77339 25.317 7.72078 24.2343 6.93149C22.7953 5.88255 21.1896 5.52471 19.437 5.83738C19.3358 5.85544 19.2743 5.83809 19.2063 5.76329C18.8276 5.34632 18.3943 4.99368 17.9118 4.70382C16.7189 3.98715 15.4267 3.71041 14.0463 3.86014C12.62 4.01484 11.3957 4.6065 10.3753 5.6123C9.69921 6.27876 9.21037 7.06724 8.90436 7.96682C8.87806 8.04414 8.84062 8.07837 8.7601 8.09673C7.58254 8.36531 6.56944 8.92947 5.72578 9.79583C5.18461 10.3516 4.76734 10.99 4.46695 11.7034C3.95149 12.9275 3.84467 14.1907 4.13873 15.4846C4.36249 16.4691 4.80933 17.3447 5.47139 18.1075C5.54232 18.1892 5.55162 18.2551 5.52091 18.3547C5.31862 19.0106 5.23023 19.6822 5.25831 20.369C5.28907 21.1214 5.45159 21.8434 5.75529 22.5501Z" fill="#10A37F"/>
<path d="M5.75205 22.5423C5.4518 21.843 5.28927 21.1209 5.25852 20.3685C5.23044 19.6817 5.31883 19.0101 5.52112 18.3542C5.55183 18.2546 5.54253 18.1887 5.4716 18.107C4.80954 17.3443 4.3627 16.4686 4.13894 15.4841C3.84488 14.1903 3.95169 12.927 4.46716 11.7029C4.76755 10.9896 5.18482 10.3511 5.72599 9.79535C6.56965 8.92899 7.58275 8.36484 8.76031 8.09626C8.84083 8.07789 8.87827 8.04367 8.90457 7.96635C9.21057 7.06677 9.69941 6.27829 10.3755 5.61183C11.3959 4.60603 12.6202 4.01436 14.0465 3.85967C15.4269 3.70993 16.7191 3.98668 17.912 4.70335C18.3945 4.9932 18.8278 5.34585 19.2065 5.76281C19.2745 5.83762 19.336 5.85497 19.4372 5.83691C21.1898 5.52424 22.7955 5.88208 24.2345 6.93102C25.3172 7.72032 26.0508 8.77291 26.4581 10.0461C26.8168 11.1673 26.8368 12.3024 26.5364 13.4417C26.5128 13.5313 26.49 13.6216 26.4586 13.7085C26.4361 13.7704 26.4486 13.8123 26.4915 13.8609C26.7972 14.2068 27.0599 14.5833 27.2779 14.9904C27.735 15.8439 27.9863 16.7533 28.0099 17.7225C28.051 19.4151 27.4874 20.8853 26.3475 22.128C25.5125 23.0383 24.4776 23.6221 23.2741 23.9008C23.1657 23.9259 23.1157 23.9735 23.0806 24.0756C22.7737 24.967 22.2831 25.7457 21.6117 26.406C20.6488 27.353 19.4976 27.9315 18.1591 28.1219C16.9544 28.2933 15.7931 28.1355 14.6849 27.6247C13.9573 27.2894 13.3212 26.8264 12.7795 26.2359C12.7201 26.1711 12.6665 26.1518 12.5773 26.1679C10.8043 26.488 9.18461 26.1225 7.73143 25.0561C6.84368 24.4047 6.1985 23.5552 5.75205 22.5423ZM19.879 11.5021C19.6814 11.3882 19.4828 11.276 19.2868 11.1595C19.2277 11.1244 19.1794 11.1233 19.1191 11.1584C18.4782 11.5306 17.8359 11.9005 17.1943 12.2716C17.1749 12.2828 17.1593 12.3007 17.1364 12.3202C17.175 12.3441 17.2045 12.3636 17.2351 12.3813C18.5278 13.128 19.8207 13.8745 21.1135 14.6211C21.7429 14.9846 22.3721 15.3485 23.0018 15.7115C23.1048 15.7709 23.1973 15.8415 23.2699 15.9369C23.3896 16.094 23.4324 16.2724 23.4323 16.4678C23.4308 18.2144 23.4314 19.961 23.4314 21.7077C23.4314 21.836 23.4308 21.9643 23.432 22.0926C23.4322 22.1192 23.4389 22.1456 23.4452 22.1907C23.6131 22.1152 23.7717 22.0523 23.9226 21.9746C25.5358 21.1442 26.5122 19.4748 26.4023 17.6656C26.3097 16.1406 25.6102 14.9418 24.3391 14.0904C24.0023 13.8648 23.6405 13.6763 23.289 13.4729C22.1571 12.8181 21.0247 12.1642 19.879 11.5021ZM17.1075 23.9497C16.6508 24.2134 16.1935 24.4763 15.7374 24.7411C15.2836 25.0047 14.8264 25.2625 14.3668 25.5365C14.4069 25.5704 14.4331 25.5941 14.4609 25.6157C15.3534 26.3067 16.3646 26.6317 17.4911 26.5807C19.1883 26.5039 20.7057 25.4739 21.4156 23.9264C21.693 23.3216 21.8316 22.6857 21.8318 22.0203C21.8325 20.2023 21.8321 18.3844 21.8321 16.5664C21.8321 16.5201 21.8287 16.4734 21.8328 16.4274C21.839 16.3573 21.8078 16.3169 21.7477 16.2834C21.5577 16.1778 21.3704 16.0674 21.1822 15.9586C20.7441 15.7054 20.3063 15.4516 19.8676 15.1995C19.8333 15.1799 19.8021 15.1418 19.7467 15.1617V15.3106C19.7467 17.51 19.7468 19.7094 19.7464 21.9088C19.7464 21.9657 19.7474 22.0235 19.7386 22.0794C19.698 22.3389 19.561 22.5323 19.3333 22.6636C18.5956 23.0892 17.8585 23.5159 17.1075 23.9497ZM15.3753 20.6984C14.5022 21.2027 13.6285 21.7058 12.7565 22.2119C12.4611 22.3833 12.1719 22.3849 11.8766 22.2119C11.437 21.9545 10.9944 21.7021 10.5533 21.4472C9.36862 20.7626 8.18416 20.0777 6.99937 19.3934C6.97974 19.3821 6.95681 19.3764 6.93024 19.3661C6.92343 19.3919 6.91743 19.4083 6.91486 19.4252C6.85592 19.8146 6.84332 20.205 6.88695 20.5969C7.01179 21.7186 7.48152 22.6723 8.30292 23.4433C9.17543 24.2623 10.2221 24.6687 11.4162 24.6797C12.224 24.6872 12.9819 24.4826 13.6834 24.0793C14.4804 23.6211 15.2762 23.1609 16.0722 22.7012C16.8929 22.2273 17.7131 21.7524 18.5345 21.2798C18.5993 21.2425 18.634 21.2025 18.6337 21.1219C18.6309 20.3877 18.6322 19.6534 18.6317 18.9191C18.6317 18.8929 18.6255 18.8666 18.6201 18.8241C17.5386 19.449 16.457 20.0738 15.3753 20.6984ZM5.67724 13.1832C5.54395 13.8505 5.55103 14.5163 5.71913 15.1757C6.03659 16.421 6.74531 17.3808 7.85328 18.0343C8.74959 18.563 9.6541 19.0778 10.555 19.5988C11.2676 20.0108 11.9805 20.4225 12.6925 20.8356C12.7543 20.8714 12.8049 20.8912 12.8778 20.8486C13.5177 20.4748 14.1603 20.1054 14.8018 19.7341C14.8213 19.7228 14.837 19.7052 14.8611 19.685C14.8219 19.6607 14.7925 19.6413 14.7621 19.6237C14.3085 19.3617 13.8547 19.1 13.401 18.838C11.938 17.9935 10.4757 17.1477 9.01144 16.3052C8.70758 16.1304 8.56212 15.8774 8.5627 15.5259C8.56576 13.6757 8.56413 11.8255 8.56413 9.97529V9.84196C8.5449 9.83756 8.53722 9.83315 8.53139 9.83491C8.50423 9.84313 8.47718 9.85199 8.45082 9.8625C7.81829 10.1149 7.26983 10.4908 6.80691 10.9899C6.23112 11.6108 5.85946 12.3383 5.67724 13.1832ZM10.4141 8.4862C10.2408 8.97869 10.1597 9.48704 10.1594 10.0081C10.1584 11.8545 10.1595 13.701 10.1574 15.5475C10.1573 15.6365 10.1849 15.6895 10.264 15.7347C10.8891 16.0917 11.5116 16.4533 12.1351 16.813C12.1646 16.8301 12.196 16.8438 12.2372 16.8644C12.2396 16.8199 12.2427 16.789 12.2428 16.7581C12.2448 16.2698 12.2475 15.7816 12.2479 15.2933C12.2486 14.2631 12.2481 13.2329 12.2481 12.2028C12.2481 11.4934 12.2485 10.7841 12.2478 10.0747C12.2476 9.90255 12.2882 9.74345 12.3843 9.59929C12.4656 9.47734 12.5787 9.39385 12.7038 9.32161C14.3241 8.38642 15.9438 7.45026 17.5635 6.514C17.5831 6.50266 17.6001 6.48678 17.6265 6.4669C17.5797 6.42896 17.5426 6.39634 17.503 6.36698C16.3198 5.48915 15.0042 5.19784 13.581 5.57219C12.0329 5.9794 10.9851 6.97129 10.4141 8.4862ZM14.8554 12.3286C16.3179 11.4839 17.7809 10.64 19.2426 9.79382C19.5345 9.62488 19.8213 9.62072 20.1134 9.78992C20.8565 10.2203 21.6007 10.6489 22.3442 11.0785C23.2266 11.5883 24.1087 12.0985 24.9912 12.6081C25.0119 12.6201 25.0348 12.6284 25.0686 12.6439C25.0766 12.6016 25.0843 12.5682 25.0891 12.5344C25.1264 12.2728 25.1415 12.0102 25.1327 11.7458C25.1055 10.9331 24.879 10.1804 24.4517 9.48978C23.9718 8.71404 23.3159 8.13272 22.488 7.75034C21.7341 7.4021 20.9411 7.26755 20.1142 7.35081C19.4561 7.41704 18.8421 7.62126 18.2695 7.95368C17.4652 8.42063 16.6586 8.8837 15.8531 9.3485C15.0568 9.80798 14.2609 10.2681 13.4637 10.726C13.399 10.7631 13.3629 10.8032 13.3631 10.8835C13.3656 11.6177 13.3645 12.352 13.3651 13.0862C13.3651 13.1123 13.3722 13.1384 13.3784 13.1807C13.8749 12.8942 14.3583 12.6153 14.8554 12.3286ZM17.1574 18.3748C17.6201 18.1074 18.0824 17.8392 18.5461 17.5736C18.6041 17.5404 18.634 17.5059 18.6338 17.433C18.6312 16.4779 18.6315 15.5229 18.6332 14.5678C18.6333 14.5068 18.6139 14.4715 18.5605 14.4408C17.733 13.9648 16.9062 13.4875 16.0808 13.0078C16.0196 12.9722 15.975 12.9748 15.9153 13.0094C15.0899 13.489 14.2635 13.9667 13.4361 14.4428C13.3823 14.4737 13.3634 14.5089 13.3635 14.5696C13.3651 15.5247 13.3652 16.4798 13.3632 17.4348C13.3631 17.5011 13.3879 17.537 13.4432 17.5688C14.2646 18.0415 15.0855 18.515 15.9046 18.9917C15.9769 19.0338 16.0295 19.029 16.0989 18.9881C16.4456 18.7836 16.7953 18.5841 17.1574 18.3748Z" fill="#FAFBFB"/>
<path d="M19.886 11.5062C21.025 12.1644 22.1574 12.8183 23.2892 13.4731C23.6408 13.6765 24.0026 13.865 24.3394 14.0906C25.6105 14.942 26.31 16.1408 26.4026 17.6658C26.5125 19.475 25.5361 21.1444 23.9229 21.9749C23.772 22.0525 23.6134 22.1154 23.4455 22.1909C23.4392 22.1458 23.4325 22.1194 23.4323 22.0928C23.4311 21.9645 23.4317 21.8362 23.4317 21.7079C23.4317 19.9612 23.431 18.2146 23.4325 16.468C23.4327 16.2726 23.3898 16.0942 23.2702 15.9371C23.1975 15.8417 23.1051 15.7711 23.0021 15.7117C22.3723 15.3487 21.7431 14.9848 21.1137 14.6213C19.8209 13.8747 18.5281 13.1282 17.2354 12.3815C17.2048 12.3638 17.1753 12.3443 17.1367 12.3204C17.1596 12.301 17.1751 12.283 17.1946 12.2718C17.8362 11.9007 18.4785 11.5308 19.1193 11.1586C19.1797 11.1235 19.228 11.1246 19.2871 11.1597C19.4831 11.2762 19.6817 11.3884 19.886 11.5062Z" fill="#11A480"/>
<path d="M17.1138 23.946C17.858 23.516 18.595 23.0893 19.3327 22.6638C19.5605 22.5324 19.6974 22.339 19.7381 22.0795C19.7468 22.0236 19.7458 21.9659 19.7458 21.909C19.7462 19.7096 19.7461 17.5102 19.7461 15.3108V15.1618C19.8016 15.142 19.8328 15.18 19.867 15.1997C20.3057 15.4518 20.7435 15.7055 21.1816 15.9588C21.3698 16.0675 21.5571 16.178 21.7471 16.2836C21.8073 16.317 21.8384 16.3574 21.8322 16.4276C21.8282 16.4736 21.8315 16.5202 21.8315 16.5665C21.8315 18.3845 21.832 20.2025 21.8313 22.0205C21.831 22.6858 21.6924 23.3218 21.415 23.9266C20.7051 25.474 19.1877 26.5041 17.4906 26.5809C16.3641 26.6319 15.3528 26.3069 14.4604 25.6158C14.4325 25.5943 14.4064 25.5706 14.3662 25.5367C14.8258 25.2626 15.283 25.0048 15.7369 24.7413C16.193 24.4765 16.6502 24.2136 17.1138 23.946Z" fill="#11A480"/>
<path d="M15.3815 20.6947C16.4611 20.0712 17.5339 19.4514 18.6195 18.8242C18.6249 18.8668 18.6311 18.893 18.6311 18.9193C18.6316 19.6535 18.6303 20.3878 18.6331 21.1221C18.6334 21.2026 18.5987 21.2427 18.5339 21.28C17.7125 21.7525 16.8923 22.2275 16.0716 22.7014C15.2756 23.1611 14.4798 23.6212 13.6828 24.0794C12.9813 24.4827 12.2234 24.6873 11.4156 24.6798C10.2215 24.6688 9.17483 24.2625 8.30232 23.4435C7.48092 22.6724 7.01119 21.7187 6.88635 20.597C6.84272 20.2051 6.85532 19.8147 6.91426 19.4254C6.91683 19.4084 6.92282 19.392 6.92964 19.3663C6.95622 19.3766 6.97913 19.3822 6.99877 19.3936C8.18355 20.0779 9.36802 20.7627 10.5527 21.4473C10.9938 21.7022 11.4364 21.9546 11.876 22.2121C12.1713 22.385 12.4605 22.3834 12.7559 22.212C13.6279 21.706 14.5016 21.2028 15.3815 20.6947Z" fill="#11A380"/>
<path d="M5.67937 13.1748C5.8597 12.3388 6.23136 11.6113 6.80717 10.9904C7.27007 10.4912 7.81854 10.1154 8.45106 9.86295C8.47741 9.85244 8.50447 9.84358 8.53163 9.83536C8.53746 9.8336 8.54514 9.83801 8.56438 9.84241V9.97574C8.56438 11.8259 8.566 13.6761 8.56294 15.5263C8.56237 15.8778 8.70782 16.1308 9.01168 16.3057C10.4759 17.1482 11.9382 17.9939 13.4012 18.8385C13.8549 19.1004 14.3087 19.3622 14.7623 19.6242C14.7927 19.6418 14.8221 19.6611 14.8613 19.6854C14.8373 19.7056 14.8215 19.7233 14.8021 19.7345C14.1606 20.1058 13.518 20.4752 12.878 20.8491C12.8052 20.8916 12.7546 20.8719 12.6928 20.836C11.9807 20.4229 11.2679 20.0113 10.5552 19.5992C9.65434 19.0783 8.74984 18.5635 7.85352 18.0348C6.74555 17.3812 6.03683 16.4215 5.71938 15.1762C5.55128 14.5168 5.54418 13.8509 5.67937 13.1748Z" fill="#11A380"/>
<path d="M10.4166 8.47883C10.9849 6.97188 12.0327 5.97999 13.5808 5.57278C15.004 5.19844 16.3196 5.48974 17.5028 6.36756C17.5424 6.39693 17.5795 6.42955 17.6262 6.4675C17.5999 6.48737 17.5829 6.50325 17.5633 6.51459C15.9436 7.45085 14.3239 8.38701 12.7036 9.3222C12.5784 9.39444 12.4654 9.47793 12.3841 9.59988C12.288 9.74404 12.2474 9.90315 12.2476 10.0753C12.2483 10.7846 12.2479 11.494 12.2479 12.2034C12.2479 13.2335 12.2484 14.2637 12.2477 15.2939C12.2473 15.7822 12.2446 16.2704 12.2426 16.7587C12.2425 16.7896 12.2394 16.8205 12.2369 16.865C12.1958 16.8444 12.1644 16.8307 12.1349 16.8136C11.5114 16.4538 10.8889 16.0923 10.2638 15.7353C10.1847 15.6901 10.1571 15.6371 10.1572 15.5481C10.1593 13.7016 10.1581 11.8551 10.1592 10.0087C10.1595 9.48763 10.2406 8.97928 10.4166 8.47883Z" fill="#11A37F"/>
<path d="M14.8478 12.3327C14.3575 12.6155 13.8741 12.8944 13.3775 13.1809C13.3714 13.1386 13.3643 13.1125 13.3642 13.0864C13.3636 12.3522 13.3647 11.6179 13.3623 10.8837C13.362 10.8034 13.3982 10.7634 13.4629 10.7262C14.2601 10.2683 15.056 9.8082 15.8523 9.34874C16.6578 8.88393 17.4644 8.42086 18.2687 7.95391C18.8412 7.6215 19.4553 7.41728 20.1133 7.35104C20.9402 7.2678 21.7333 7.40234 22.4872 7.75058C23.315 8.13295 23.971 8.71428 24.4509 9.49001C24.8782 10.1806 25.1047 10.9334 25.1318 11.746C25.1407 12.0105 25.1255 12.273 25.0883 12.5346C25.0835 12.5685 25.0758 12.6019 25.0677 12.6441C25.034 12.6287 25.0111 12.6204 24.9903 12.6084C24.1079 12.0987 23.2257 11.5886 22.3434 11.0788C21.5998 10.6492 20.8557 10.2206 20.1126 9.79015C19.8205 9.62095 19.5336 9.62512 19.2418 9.79406C17.7801 10.6402 16.3171 11.4841 14.8478 12.3327Z" fill="#11A380"/>
<path d="M17.1508 18.379C16.7954 18.5842 16.4457 18.7837 16.099 18.9883C16.0296 19.0292 15.977 19.034 15.9047 18.9919C15.0856 18.5152 14.2647 18.0417 13.4433 17.569C13.388 17.5371 13.3632 17.5013 13.3633 17.435C13.3653 16.4799 13.3651 15.5249 13.3635 14.5698C13.3634 14.5091 13.3824 14.4739 13.4362 14.4429C14.2636 13.9669 15.09 13.4891 15.9154 13.0096C15.9751 12.9749 16.0196 12.9724 16.0809 13.008C16.9063 13.4877 17.7331 13.965 18.5606 14.441C18.614 14.4717 18.6334 14.507 18.6333 14.568C18.6316 15.523 18.6312 16.4781 18.6339 17.4332C18.6341 17.5061 18.6042 17.5406 18.5462 17.5738C18.0825 17.8394 17.6202 18.1076 17.1508 18.379L17.1508 18.379Z" fill="#11A37F"/>
</svg>
