<svg width="32" height="32" viewBox="0 0 32 32" fill="none" xmlns="http://www.w3.org/2000/svg">
<mask id="mask0_2089_2435" style="mask-type:alpha" maskUnits="userSpaceOnUse" x="0" y="0" width="32" height="32">
<rect width="32" height="32" fill="#D9D9D9"/>
</mask>
<g mask="url(#mask0_2089_2435)">
<path d="M27.6397 15.8462C27.6397 16.4615 27.3441 16.5385 26.6051 16.5385C25.7921 16.5385 25.6443 16.3846 25.5704 15.7692C25.4226 14.1538 24.388 12.7692 22.6143 12.6923C22.097 12.6154 21.9492 12.4615 21.9492 11.6923C21.9492 11 22.0231 10.6923 22.5404 10.6923C25.4965 10.7692 27.6397 13.3077 27.6397 15.8462ZM32 15.8462C32 11.0769 28.8961 6 21.6536 6H7.3903C7.09469 6 6.87298 6.15385 6.87298 6.46154C6.87298 6.61538 6.94688 6.76923 7.09469 6.84615C7.61201 7.30769 8.35104 7.76923 9.38568 8.30769C10.3464 8.84615 11.1594 9.15385 11.8984 9.46154C12.194 9.61538 12.3418 9.76923 12.3418 9.92308C12.3418 10.1538 12.194 10.3846 11.8245 10.3846H0.517321C0.147806 10.3077 0 10.5385 0 10.7692C0 11 0.073903 11.1538 0.221709 11.3077C1.10855 12.3077 2.58661 13.5385 4.72979 14.9231C6.57737 16.1538 8.94226 17.4615 10.7898 18.3846C11.0855 18.5385 11.2333 18.6923 11.2333 18.9231C11.2333 19.1538 11.0855 19.3077 10.7159 19.3077H5.46882C5.17321 19.3077 5.0254 19.4615 5.0254 19.6923C5.0254 19.8462 5.09931 20 5.24711 20.1538C6.42956 21.3077 8.35104 22.4615 10.8637 23.6154C14.2633 25.0769 17.6628 26 21.5058 26C28.8222 26 32 20.3077 32 15.8462ZM22.4665 22.6923C18.9192 22.6923 15.8891 19.6923 15.8891 15.8462C15.8891 12.1538 18.8453 9.15385 22.4665 9.15385C26.1617 9.15385 29.0439 12.1538 29.0439 15.8462C29.0439 19.6154 26.1617 22.6923 22.4665 22.6923Z" fill="#FF642D"/>
</g>
</svg>
