<svg width="32" height="32" viewBox="0 0 32 32" fill="none" xmlns="http://www.w3.org/2000/svg">
<mask id="mask0_2089_2455" style="mask-type:alpha" maskUnits="userSpaceOnUse" x="0" y="0" width="32" height="32">
<rect width="32" height="32" fill="#D9D9D9"/>
</mask>
<g mask="url(#mask0_2089_2455)">
<mask id="mask1_2089_2455" style="mask-type:luminance" maskUnits="userSpaceOnUse" x="7" y="0" width="18" height="32">
<path d="M24.1671 0H7.70703V32H24.1671V0Z" fill="white"/>
</mask>
<g mask="url(#mask1_2089_2455)">
<path d="M24.0834 0.203125V21.019L17.0099 14.1284C16.1802 13.336 15.6515 12.28 15.514 11.141C15.431 10.451 15.5229 9.75132 15.7811 9.10618C15.9792 8.63862 16.2657 8.2137 16.6247 7.85459L24.0834 0.203125Z" fill="#513F9A"/>
<path d="M24.0834 0.203125V21.019L17.0099 14.1284C16.1802 13.336 15.6515 12.28 15.514 11.141C15.431 10.451 15.5229 9.75132 15.7811 9.10618C15.9792 8.63862 16.2657 8.2137 16.6247 7.85459L24.0834 0.203125Z" fill="#513F9A"/>
<path d="M7.78906 31.7964V10.9805L14.8626 17.8708C15.6923 18.6632 16.221 19.7191 16.3584 20.8582C16.4414 21.5481 16.3496 22.2478 16.0914 22.893C15.8933 23.3606 15.6069 23.7856 15.2478 24.1446L7.78906 31.7964Z" fill="#513F9A"/>
<path d="M7.78906 31.7964V10.9805L14.8626 17.8708C15.6923 18.6632 16.221 19.7191 16.3584 20.8582C16.4414 21.5481 16.3496 22.2478 16.0914 22.893C15.8933 23.3606 15.6069 23.7856 15.2478 24.1446L7.78906 31.7964Z" fill="#513F9A"/>
</g>
</g>
</svg>
