<svg width="32" height="32" viewBox="0 0 32 32" fill="none" xmlns="http://www.w3.org/2000/svg">
<mask id="mask0_2089_2560" style="mask-type:alpha" maskUnits="userSpaceOnUse" x="0" y="0" width="32" height="32">
<rect width="32" height="32" fill="#D9D9D9"/>
</mask>
<g mask="url(#mask0_2089_2560)">
<g clip-path="url(#clip0_2089_2560)">
<path d="M26.4452 6.28343C26.4232 6.12343 26.2835 6.03488 26.168 6.02513C26.0528 6.01548 23.6138 5.83411 23.6138 5.83411C23.6138 5.83411 21.92 4.14699 21.7341 3.96025C21.548 3.77362 21.1847 3.83039 21.0437 3.87203C21.023 3.87817 20.6736 3.98633 20.0958 4.16573C19.53 2.53219 18.5314 1.03104 16.7746 1.03104C16.7261 1.03104 16.6761 1.03302 16.6262 1.03587C16.1266 0.372961 15.5077 0.0849609 14.9731 0.0849609C10.8807 0.0849609 8.92554 5.21756 8.31252 7.82578C6.72231 8.32014 5.59263 8.67159 5.44833 8.71707C4.5607 8.99641 4.53263 9.02447 4.41608 9.86359C4.32837 10.4989 2.00586 28.5185 2.00586 28.5185L20.1033 31.9204L29.9092 29.7921C29.9092 29.7921 26.4668 6.44343 26.4452 6.28343ZM19.0955 4.47608L17.5642 4.95159C17.5648 4.84332 17.5653 4.7368 17.5653 4.6203C17.5653 3.60507 17.4248 2.78765 17.1995 2.13965C18.1047 2.25362 18.7076 3.28693 19.0955 4.47608ZM16.0766 2.34096C16.3282 2.97362 16.4919 3.88156 16.4919 5.10677C16.4919 5.16945 16.4913 5.22677 16.4908 5.28474C15.4949 5.59422 14.4127 5.93022 13.3282 6.26732C13.9371 3.9094 15.0786 2.77055 16.0766 2.34096ZM14.8607 1.18622C15.0373 1.18622 15.2153 1.24639 15.3856 1.36397C14.074 1.98315 12.6682 3.5426 12.0745 6.6568L9.5746 7.43356C10.27 5.05822 11.9212 1.18622 14.8607 1.18622Z" fill="#95BF46"/>
<path d="M26.1674 6.02516C26.0521 6.01552 23.6132 5.83415 23.6132 5.83415C23.6132 5.83415 21.9193 4.14702 21.7334 3.96028C21.6638 3.8908 21.57 3.85519 21.4719 3.83984L20.1035 31.9202L29.9085 29.7922C29.9085 29.7922 26.4661 6.44346 26.4445 6.28346C26.4225 6.12346 26.2828 6.03491 26.1674 6.02516Z" fill="#5E8E3E"/>
<path d="M16.7738 11.4617L15.5647 15.0701C15.5647 15.0701 14.5054 14.5028 13.2068 14.5028C11.3031 14.5028 11.2073 15.7014 11.2073 16.0034C11.2073 17.6514 15.4892 18.2829 15.4892 22.143C15.4892 25.1801 13.5692 27.1357 10.9804 27.1357C7.87384 27.1357 6.28516 25.196 6.28516 25.196L7.11696 22.4387C7.11696 22.4387 8.74999 23.8453 10.128 23.8453C11.0284 23.8453 11.3946 23.1341 11.3946 22.6144C11.3946 20.4647 7.8817 20.3688 7.8817 16.8364C7.8817 13.8634 10.0087 10.9863 14.3022 10.9863C15.9565 10.9863 16.7738 11.4617 16.7738 11.4617Z" fill="white"/>
</g>
</g>
<defs>
<clipPath id="clip0_2089_2560">
<rect width="27.9664" height="32" fill="white" transform="translate(2)"/>
</clipPath>
</defs>
</svg>
