<svg width="32" height="32" viewBox="0 0 32 32" fill="none" xmlns="http://www.w3.org/2000/svg">
<mask id="mask0_2089_2580" style="mask-type:alpha" maskUnits="userSpaceOnUse" x="0" y="0" width="32" height="32">
<rect width="32" height="32" fill="#D9D9D9"/>
</mask>
<g mask="url(#mask0_2089_2580)">
<path d="M16.129 1C24.349 1 31 7.8 31 16C31 24.096 24.519 30.825 16.444 30.997L16.13 31H15.683C14.232 31 13.037 29.591 13.037 28.144C13.037 26.752 13.821 25.394 15.171 25.292L15.336 25.286H15.783C21.051 25.286 25.376 21.157 25.376 15.901C25.376 10.644 21.129 6.514 15.86 6.514C10.683 6.514 6.866 10.641 6.733 15.771L6.73 16.047V16.492C6.73 17.94 5.318 19.13 3.865 19.13C2.468 19.13 1.105 18.025 1.007 16.651L1 16.491V16.047C1 7.949 7.692 1.174 15.773 1.003L16.084 1H16.129ZM8.965 20.688C10.089 20.688 11.21 21.418 11.305 22.563L11.313 22.721V26.861C11.313 28.094 10.243 29.125 9.067 29.125C8.663 29.125 8.163 29.071 7.843 28.835L7.732 28.739L3.272 24.087C2.972 23.768 2.875 23.325 2.875 22.83C2.875 21.648 3.742 20.767 4.864 20.693L5.018 20.688H8.965ZM16 10.375C16.7387 10.3745 17.4704 10.5196 18.153 10.802C18.8356 11.0844 19.4559 11.4987 19.9783 12.021C20.5007 12.5433 20.9151 13.1635 21.1976 13.8461C21.4802 14.5287 21.6254 15.2603 21.625 15.999C21.6253 16.7378 21.48 17.4694 21.1974 18.1521C20.9148 18.8347 20.5005 19.455 19.9781 19.9774C19.4558 20.4999 18.8356 20.9143 18.153 21.197C17.4704 21.4797 16.7388 21.6251 16 21.625C15.2611 21.6255 14.5293 21.4804 13.8466 21.1978C13.1638 20.9152 12.5434 20.5008 12.021 19.9783C11.4985 19.4558 11.0843 18.8353 10.8018 18.1525C10.5194 17.4697 10.3743 16.7379 10.375 15.999C10.3745 15.2602 10.5196 14.5286 10.8021 13.8459C11.0846 13.1633 11.499 12.5431 12.0214 12.0207C12.5439 11.4984 13.1642 11.0841 13.8469 10.8017C14.5295 10.5194 15.2612 10.3743 16 10.375ZM17.64 12.72C16.725 12.72 16 13.447 16 14.36C16 15.273 16.726 16.001 17.64 16.001C17.8558 16.0025 18.0698 15.961 18.2695 15.8792C18.4692 15.7973 18.6506 15.6765 18.8033 15.524C18.9559 15.3714 19.0768 15.19 19.1588 14.9904C19.2408 14.7908 19.2823 14.5768 19.281 14.361C19.281 13.447 18.553 12.72 17.64 12.72Z" fill="#34495E"/>
</g>
</svg>
