<svg width="20" height="18" viewBox="0 0 20 18" fill="none" xmlns="http://www.w3.org/2000/svg">
<mask id="mask0_1257_14" style="mask-type:alpha" maskUnits="userSpaceOnUse" x="0" y="0" width="20" height="18">
<rect width="20" height="18" fill="#D9D9D9"/>
</mask>
<g mask="url(#mask0_1257_14)">
<g clip-path="url(#clip0_1257_14)">
<path fill-rule="evenodd" clip-rule="evenodd" d="M19.5701 17.3255L17.4923 13.7165C17.4524 13.6473 17.3948 13.5898 17.3253 13.5498C17.2558 13.5098 17.1768 13.4887 17.0964 13.4887L11.7282 13.4887C11.6482 13.4887 11.5696 13.4679 11.5003 13.4283C11.4311 13.3887 11.3735 13.3317 11.3335 13.2631L6.53543 5.17625C6.41246 4.96538 6.5662 4.70185 6.81215 4.70185C6.86823 4.70185 6.92332 4.71647 6.97189 4.74423C7.02045 4.77199 7.06078 4.81192 7.08882 4.86L11.7472 12.7073C11.7871 12.7758 11.8445 12.8326 11.9136 12.8722C11.9827 12.9118 12.0611 12.9327 12.1409 12.9329L16.3072 12.941C16.6576 12.9417 16.8777 12.5668 16.7035 12.2657L12.6085 5.18662C12.4345 4.88587 12.6538 4.5113 13.0039 4.5113L14.7182 4.5113C14.7781 4.51131 14.8373 4.49964 14.8926 4.47697C14.9479 4.4543 14.9981 4.42107 15.0405 4.37918C15.0828 4.33728 15.1163 4.28754 15.1392 4.2328C15.1621 4.17806 15.1739 4.11939 15.1739 4.06014L15.1739 0.451107C15.1739 0.391862 15.1621 0.333197 15.1392 0.278462C15.1163 0.223728 15.0828 0.173995 15.0404 0.132105C14.9981 0.0902154 14.9479 0.0569884 14.8926 0.0343215C14.8373 0.0116547 14.7781 -7.85746e-06 14.7182 -2.09603e-07L2.27832 -7.4992e-07C1.02003 -8.04572e-07 -4.34802e-06 1.00986 -4.40282e-06 2.25565C-0.000733648 2.70091 0.132291 3.13634 0.382157 3.50656L8.15302 16.8318C8.58414 17.5711 9.37412 17.9773 10.1794 17.9595C10.2157 17.9586 10.252 17.9613 10.2878 17.9673C10.4153 17.9888 10.5476 18 10.6839 18L19.1742 18C19.5239 18 19.7433 17.6262 19.5701 17.3255Z" fill="#7572FD"/>
<path d="M14.8699 -9.43221e-08C14.9402 -7.59028e-06 15.0093 0.0218494 15.0701 0.0633504C15.1309 0.104851 15.1813 0.164518 15.2161 0.236287L17.033 3.9802C17.1844 4.29221 16.9926 4.68 16.6869 4.68L1.99228 4.68C0.891956 4.68 0.908829 3.78 4.96346e-06 2.33997C2.54471 1.62 2.55185 1.08 2.54471 -2.13969e-09L14.8699 -9.43221e-08Z" fill="#7572FD"/>
</g>
</g>
<defs>
<clipPath id="clip0_1257_14">
<rect width="18" height="20" fill="white" transform="translate(20) rotate(90)"/>
</clipPath>
</defs>
</svg>
