<svg width="181" height="39" viewBox="0 0 181 39" fill="none" xmlns="http://www.w3.org/2000/svg">
<g clip-path="url(#clip0_187_391)">
<path fill-rule="evenodd" clip-rule="evenodd" d="M40.9132 36.82L36.5693 29.1501C36.486 29.0031 36.3656 28.8809 36.2202 28.7959C36.0749 28.7109 35.9098 28.6661 35.7416 28.6661L24.5189 28.6661C24.3517 28.6661 24.1874 28.6218 24.0426 28.5376C23.8977 28.4535 23.7775 28.3325 23.6939 28.1867L13.663 11.0005C13.4059 10.5524 13.7273 9.99232 14.2415 9.99232C14.3587 9.99234 14.4739 10.0234 14.5754 10.0824C14.677 10.1414 14.7613 10.2263 14.8199 10.3284L24.5587 27.0055C24.6422 27.1509 24.7621 27.2718 24.9066 27.3559C25.051 27.44 25.2149 27.4845 25.3818 27.4848L34.0917 27.5021C34.8244 27.5036 35.2844 26.7069 34.9203 26.0669L26.3592 11.0226C25.9955 10.3834 26.4539 9.58738 27.1858 9.58738L30.7699 9.58738C30.895 9.5874 31.0189 9.56261 31.1345 9.51443C31.2501 9.46625 31.3551 9.39562 31.4436 9.30659C31.532 9.21755 31.6022 9.11185 31.6501 8.99551C31.6979 8.87917 31.7226 8.75449 31.7226 8.62857L31.7226 0.958688C31.7226 0.832781 31.6979 0.708107 31.65 0.591785C31.6022 0.475464 31.532 0.369773 31.4435 0.280749C31.355 0.191725 31.25 0.121111 31.1344 0.0729399C31.0188 0.0247685 30.895 -1.66941e-05 30.7699 -4.40913e-07L4.76307 -1.57771e-06C2.13251 -1.69269e-06 2.66091e-05 2.14615 2.64933e-05 4.79369C-0.00149943 5.73996 0.2766 6.66532 0.798969 7.45212L17.0447 35.7708C17.946 37.3419 19.5975 38.2053 21.281 38.1673C21.3569 38.1656 21.4329 38.1711 21.5077 38.1839C21.7743 38.2296 22.0507 38.2535 22.3358 38.2535L40.0856 38.2535C40.8166 38.2535 41.2752 37.459 40.9132 36.82Z" fill="#7572FD"/>
<path d="M31.0869 -1.98407e-07C31.2339 -1.61288e-05 31.3783 0.0464342 31.5055 0.134632C31.6326 0.222829 31.7379 0.349631 31.8107 0.502156L35.6092 8.4587C35.9257 9.12177 35.5246 9.9459 34.8855 9.9459L4.16507 9.9459C1.86473 9.9459 1.90001 8.03323 2.64855e-05 4.97288C5.31998 3.44281 5.33489 2.29521 5.31998 8.87542e-09L31.0869 -1.98407e-07Z" fill="#7572FD"/>
</g>
<path d="M176.046 38.0858V32.3008H175.712C175.204 33.1266 174.569 33.8094 173.806 34.3493C173.044 34.8892 172.187 35.2862 171.234 35.5403C170.281 35.7944 169.265 35.9214 168.185 35.9214C166.279 35.9214 164.596 35.4609 163.135 34.5399C161.674 33.6188 160.531 32.2055 159.705 30.3C158.879 28.3626 158.467 25.9013 158.467 22.9159C158.467 19.8352 158.864 17.3262 159.658 15.3888C160.483 13.4515 161.643 12.0223 163.135 11.1013C164.628 10.1802 166.391 9.71973 168.423 9.71973C170.075 9.71973 171.567 10.0532 172.901 10.7202C174.235 11.3871 175.315 12.3875 176.141 13.7214H176.474L176.951 10.2914H181V38.0858H176.046ZM169.852 31.6339C170.837 31.6339 171.694 31.4751 172.425 31.1575C173.187 30.8399 173.838 30.3476 174.378 29.6807C174.918 28.9819 175.331 28.0927 175.617 27.0128C175.903 25.933 176.046 24.6468 176.046 23.154V22.4871C176.046 20.6768 175.823 19.1365 175.379 17.8661C174.934 16.5957 174.251 15.6429 173.33 15.0077C172.441 14.3408 171.266 14.0073 169.805 14.0073C168.376 14.0073 167.2 14.2931 166.279 14.8648C165.39 15.4365 164.723 16.3416 164.279 17.5802C163.834 18.8189 163.612 20.4386 163.612 22.4395V23.297C163.612 25.2025 163.818 26.7746 164.231 28.0133C164.676 29.2519 165.358 30.1729 166.279 30.7764C167.2 31.348 168.391 31.6339 169.852 31.6339Z" fill="black"/>
<path d="M139.944 35.9214C139.15 35.9214 138.293 35.8261 137.372 35.6356C136.451 35.445 135.577 35.0957 134.752 34.5875C133.958 34.0794 133.306 33.3806 132.798 32.4914C132.29 31.5703 132.036 30.3794 132.036 28.9184C132.036 27.2034 132.433 25.7901 133.227 24.6785C134.021 23.5669 135.133 22.6935 136.562 22.0583C137.991 21.4231 139.69 20.9785 141.659 20.7244C143.66 20.4704 145.836 20.3433 148.186 20.3433V17.8661C148.186 17.0403 148.043 16.3098 147.757 15.6747C147.503 15.0395 147.011 14.5472 146.28 14.1978C145.582 13.8485 144.565 13.6738 143.231 13.6738C141.897 13.6738 140.849 13.8485 140.087 14.1978C139.357 14.5154 138.833 14.9283 138.515 15.4365C138.229 15.9129 138.086 16.4369 138.086 17.0086V17.7232H133.322C133.291 17.5644 133.275 17.4056 133.275 17.2468C133.275 17.088 133.275 16.8974 133.275 16.6751C133.275 15.1824 133.688 13.9279 134.513 12.9116C135.371 11.8635 136.562 11.0695 138.086 10.5296C139.611 9.98968 141.373 9.71973 143.374 9.71973C145.534 9.71973 147.328 10.0373 148.758 10.6725C150.218 11.2759 151.314 12.1493 152.045 13.2927C152.775 14.436 153.14 15.8176 153.14 17.4373V30.157C153.14 30.7605 153.283 31.1892 153.569 31.4433C153.887 31.6974 154.252 31.8244 154.665 31.8244H156.38V35.1592C155.999 35.318 155.522 35.4768 154.951 35.6356C154.379 35.7944 153.712 35.8738 152.95 35.8738C152.092 35.8738 151.362 35.715 150.758 35.3974C150.187 35.1115 149.71 34.6987 149.329 34.1588C148.98 33.5871 148.742 32.9519 148.615 32.2532H148.329C147.757 32.9837 147.058 33.6347 146.233 34.2064C145.439 34.7463 144.518 35.1592 143.47 35.445C142.421 35.7626 141.246 35.9214 139.944 35.9214ZM141.326 31.8244C142.31 31.8244 143.215 31.6815 144.041 31.3957C144.899 31.0781 145.629 30.6493 146.233 30.1094C146.836 29.5377 147.312 28.8708 147.662 28.1085C148.011 27.3146 148.186 26.457 148.186 25.536V23.8686C145.994 23.8686 144.073 23.9957 142.421 24.2498C140.77 24.5038 139.484 24.9802 138.563 25.6789C137.642 26.3459 137.181 27.2828 137.181 28.4897C137.181 29.2201 137.34 29.8394 137.658 30.3476C137.975 30.824 138.452 31.1892 139.087 31.4433C139.722 31.6974 140.468 31.8244 141.326 31.8244Z" fill="black"/>
<path d="M106.889 35.3494L115.845 22.4867L107.413 10.291H113.416L118.942 18.6756H119.228L124.802 10.291H130.471L121.991 22.3438L130.947 35.3494H124.992L118.894 26.1549H118.656L112.558 35.3494H106.889Z" fill="black"/>
<path d="M93.7023 35.9214C91.1298 35.9214 88.9701 35.4609 87.2233 34.5399C85.5083 33.5871 84.2062 32.142 83.3169 30.2047C82.4276 28.2673 81.983 25.806 81.983 22.8206C81.983 19.8034 82.4276 17.342 83.3169 15.4365C84.2062 13.4991 85.5242 12.0699 87.271 11.1489C89.0178 10.1961 91.1933 9.71973 93.7976 9.71973C96.1795 9.71973 98.1645 10.1802 99.7525 11.1013C101.372 11.9905 102.595 13.3562 103.421 15.1983C104.246 17.0403 104.659 19.3588 104.659 22.1536V24.0592H87.0804C87.1439 25.8377 87.4139 27.3304 87.8903 28.5373C88.3667 29.7124 89.0813 30.5858 90.0341 31.1575C91.0186 31.6974 92.2572 31.9673 93.7499 31.9673C94.671 31.9673 95.4967 31.8562 96.2272 31.6339C96.9577 31.3798 97.577 31.0304 98.0851 30.5858C98.5933 30.1094 98.9903 29.5536 99.2761 28.9184C99.562 28.2515 99.7049 27.5051 99.7049 26.6794H104.564C104.564 28.1721 104.31 29.4901 103.802 30.6334C103.294 31.7768 102.547 32.7455 101.563 33.5394C100.61 34.3017 99.4667 34.8892 98.1328 35.3021C96.7989 35.715 95.322 35.9214 93.7023 35.9214ZM87.1757 20.4386H99.4667C99.4667 19.2 99.3237 18.1678 99.0379 17.342C98.7838 16.4845 98.4027 15.7858 97.8946 15.2459C97.3864 14.706 96.783 14.3249 96.0843 14.1026C95.3856 13.8485 94.5916 13.7214 93.7023 13.7214C92.3684 13.7214 91.2251 13.9596 90.2723 14.436C89.3512 14.9124 88.6366 15.6588 88.1285 16.6751C87.6203 17.6596 87.3027 18.9141 87.1757 20.4386Z" fill="black"/>
<path d="M48.9987 35.3496V2.66895H54.1437L69.0549 23.1539C69.2454 23.3445 69.4519 23.6144 69.6742 23.9638C69.9282 24.3131 70.1664 24.6625 70.3888 25.0118C70.6111 25.3612 70.7699 25.647 70.8652 25.8694H71.1034C71.1034 25.393 71.1034 24.9324 71.1034 24.4878C71.1034 24.0432 71.1034 23.5985 71.1034 23.1539V2.66895H76.2484V35.3496H71.2939L56.1922 14.6264C55.9381 14.2453 55.6205 13.7689 55.2394 13.1973C54.8583 12.5938 54.5725 12.1333 54.3819 11.8157H54.1437C54.1437 12.2604 54.1437 12.7209 54.1437 13.1973C54.1437 13.6419 54.1437 14.1183 54.1437 14.6264V35.3496H48.9987Z" fill="black"/>
<defs>
<clipPath id="clip0_187_391">
<rect width="38.2534" height="41.8119" fill="white" transform="translate(41.8119) rotate(90)"/>
</clipPath>
</defs>
</svg>
