<svg width="181" height="40" viewBox="0 0 181 40" fill="none" xmlns="http://www.w3.org/2000/svg">
<g clip-path="url(#clip0_600_1148)">
<path fill-rule="evenodd" clip-rule="evenodd" d="M40.9131 37.6052L36.5692 29.9353C36.4859 29.7883 36.3655 29.6661 36.2201 29.5811C36.0748 29.496 35.9097 29.4513 35.7416 29.4512L24.5188 29.4512C24.3516 29.4512 24.1873 29.4069 24.0425 29.3228C23.8977 29.2386 23.7774 29.1176 23.6938 28.9719L13.6629 11.7857C13.4058 11.3375 13.7272 10.7775 14.2414 10.7775C14.3586 10.7775 14.4738 10.8086 14.5753 10.8676C14.6769 10.9266 14.7612 11.0114 14.8198 11.1136L24.5586 27.7906C24.6421 27.9361 24.762 28.0569 24.9065 28.1411C25.0509 28.2252 25.2148 28.2696 25.3817 28.27L34.0916 28.2873C34.8243 28.2888 35.2843 27.492 34.9202 26.8521L26.3591 11.8077C25.9954 11.1686 26.4539 10.3725 27.1858 10.3725L30.7698 10.3725C30.8949 10.3726 31.0188 10.3478 31.1344 10.2996C31.25 10.2514 31.355 10.1808 31.4435 10.0917C31.5319 10.0027 31.6021 9.897 31.65 9.78067C31.6979 9.66433 31.7225 9.53964 31.7225 9.41372L31.7225 1.74384C31.7225 1.61794 31.6978 1.49326 31.6499 1.37694C31.6021 1.26062 31.5319 1.15493 31.4434 1.06591C31.355 0.976881 31.2499 0.906267 31.1343 0.858096C31.0188 0.809925 30.8949 0.78514 30.7698 0.785156L4.76298 0.785155C2.13242 0.785155 -6.49437e-05 2.93131 -6.50594e-05 5.57885C-0.00159098 6.52512 0.276508 7.45047 0.798877 8.23727L17.0446 36.556C17.9459 38.1271 19.5974 38.9905 21.2809 38.9524C21.3569 38.9507 21.4328 38.9563 21.5076 38.969C21.7742 39.0147 22.0506 39.0386 22.3357 39.0386L40.0855 39.0386C40.8166 39.0386 41.2751 38.2442 40.9131 37.6052Z" fill="#FF8B4A"/>
<path d="M31.0869 0.785156C31.2339 0.78514 31.3784 0.83159 31.5055 0.919788C31.6326 1.00799 31.7379 1.13479 31.8107 1.28731L35.6092 9.24385C35.9257 9.90693 35.5246 10.7311 34.8855 10.7311L4.16511 10.7311C1.86476 10.7311 1.90004 8.81838 5.70031e-05 5.75804C5.32001 4.22797 5.33492 3.08037 5.32001 0.785156L31.0869 0.785156Z" fill="#FF8B4A"/>
</g>
<path d="M176.045 38.871V33.086H175.712C175.204 33.9117 174.568 34.5946 173.806 35.1345C173.044 35.6744 172.186 36.0714 171.234 36.3255C170.281 36.5795 169.265 36.7066 168.185 36.7066C166.279 36.7066 164.596 36.2461 163.135 35.325C161.674 34.404 160.531 32.9907 159.705 31.0851C158.879 29.1478 158.466 26.6864 158.466 23.701C158.466 20.6203 158.863 18.1113 159.657 16.174C160.483 14.2366 161.642 12.8075 163.135 11.8864C164.628 10.9654 166.39 10.5049 168.423 10.5049C170.074 10.5049 171.567 10.8384 172.901 11.5053C174.235 12.1723 175.315 13.1727 176.141 14.5066H176.474L176.95 11.0766H181V38.871H176.045ZM169.852 32.419C170.837 32.419 171.694 32.2602 172.425 31.9426C173.187 31.625 173.838 31.1328 174.378 30.4658C174.918 29.7671 175.331 28.8778 175.617 27.798C175.902 26.7182 176.045 25.4319 176.045 23.9392V23.2723C176.045 21.462 175.823 19.9216 175.378 18.6512C174.934 17.3808 174.251 16.4281 173.33 15.7929C172.441 15.1259 171.265 14.7924 169.804 14.7924C168.375 14.7924 167.2 15.0783 166.279 15.6499C165.39 16.2216 164.723 17.1268 164.278 18.3654C163.834 19.604 163.611 21.2238 163.611 23.2246V24.0821C163.611 25.9877 163.818 27.5598 164.231 28.7984C164.675 30.0371 165.358 30.9581 166.279 31.5615C167.2 32.1332 168.391 32.419 169.852 32.419Z" fill="#091542"/>
<path d="M139.944 36.7066C139.15 36.7066 138.293 36.6113 137.372 36.4207C136.451 36.2302 135.577 35.8808 134.752 35.3727C133.958 34.8645 133.307 34.1658 132.798 33.2765C132.29 32.3555 132.036 31.1645 132.036 29.7036C132.036 27.9886 132.433 26.5753 133.227 25.4637C134.021 24.3521 135.133 23.4787 136.562 22.8435C137.991 22.2083 139.69 21.7637 141.659 21.5096C143.66 21.2555 145.836 21.1285 148.186 21.1285V18.6512C148.186 17.8255 148.043 17.095 147.757 16.4598C147.503 15.8246 147.011 15.3323 146.28 14.983C145.582 14.6336 144.565 14.459 143.231 14.459C141.897 14.459 140.849 14.6336 140.087 14.983C139.357 15.3006 138.833 15.7135 138.515 16.2216C138.229 16.698 138.086 17.222 138.086 17.7937V18.5083H133.322C133.291 18.3495 133.275 18.1907 133.275 18.0319C133.275 17.8731 133.275 17.6826 133.275 17.4602C133.275 15.9675 133.688 14.713 134.513 13.6967C135.371 12.6487 136.562 11.8547 138.086 11.3148C139.611 10.7748 141.373 10.5049 143.374 10.5049C145.534 10.5049 147.328 10.8225 148.758 11.4577C150.219 12.0611 151.314 12.9345 152.045 14.0778C152.775 15.2212 153.14 16.6027 153.14 18.2225V30.9422C153.14 31.5456 153.283 31.9744 153.569 32.2285C153.887 32.4825 154.252 32.6096 154.665 32.6096H156.38V35.9443C155.999 36.1031 155.522 36.2619 154.951 36.4207C154.379 36.5795 153.712 36.6589 152.95 36.6589C152.092 36.6589 151.362 36.5001 150.758 36.1825C150.187 35.8967 149.71 35.4838 149.329 34.9439C148.98 34.3722 148.742 33.737 148.615 33.0383H148.329C147.757 33.7688 147.058 34.4199 146.233 34.9916C145.439 35.5315 144.518 35.9443 143.47 36.2302C142.422 36.5478 141.246 36.7066 139.944 36.7066ZM141.326 32.6096C142.31 32.6096 143.216 32.4667 144.041 32.1808C144.899 31.8632 145.629 31.4345 146.233 30.8946C146.836 30.3229 147.313 29.6559 147.662 28.8937C148.011 28.0997 148.186 27.2422 148.186 26.3212V24.6538C145.994 24.6538 144.073 24.7808 142.422 25.0349C140.77 25.289 139.484 25.7654 138.563 26.4641C137.642 27.131 137.181 28.068 137.181 29.2748C137.181 30.0053 137.34 30.6246 137.658 31.1328C137.975 31.6091 138.452 31.9744 139.087 32.2285C139.722 32.4825 140.468 32.6096 141.326 32.6096Z" fill="#091542"/>
<path d="M106.889 36.1345L115.845 23.2719L107.413 11.0762H113.416L118.942 19.4607H119.228L124.802 11.0762H130.471L121.991 23.1289L130.947 36.1345H124.992L118.894 26.9401H118.656L112.558 36.1345H106.889Z" fill="#091542"/>
<path d="M93.7022 36.7066C91.1297 36.7066 88.97 36.2461 87.2232 35.325C85.5082 34.3722 84.2061 32.9272 83.3168 30.9898C82.4275 29.0525 81.9829 26.5911 81.9829 23.6057C81.9829 20.5886 82.4275 18.1272 83.3168 16.2216C84.2061 14.2843 85.5241 12.8551 87.2709 11.9341C89.0177 10.9813 91.1932 10.5049 93.7975 10.5049C96.1795 10.5049 98.1644 10.9654 99.7524 11.8864C101.372 12.7757 102.595 14.1414 103.421 15.9834C104.246 17.8255 104.659 20.1439 104.659 22.9388V24.8444H87.0803C87.1438 26.6229 87.4138 28.1156 87.8902 29.3225C88.3666 30.4976 89.0812 31.371 90.034 31.9426C91.0185 32.4825 92.2571 32.7525 93.7498 32.7525C94.6709 32.7525 95.4966 32.6413 96.2271 32.419C96.9576 32.1649 97.5769 31.8156 98.085 31.371C98.5932 30.8946 98.9902 30.3388 99.276 29.7036C99.5619 29.0366 99.7048 28.2903 99.7048 27.4645H104.564C104.564 28.9572 104.31 30.2752 103.802 31.4186C103.294 32.5619 102.547 33.5306 101.563 34.3246C100.61 35.0868 99.4666 35.6744 98.1327 36.0873C96.7988 36.5001 95.3219 36.7066 93.7022 36.7066ZM87.1756 21.2238H99.4666C99.4666 19.9851 99.3237 18.9529 99.0378 18.1272C98.7837 17.2697 98.4026 16.571 97.8945 16.0311C97.3863 15.4911 96.7829 15.11 96.0842 14.8877C95.3855 14.6336 94.5915 14.5066 93.7022 14.5066C92.3683 14.5066 91.225 14.7448 90.2722 15.2212C89.3511 15.6976 88.6365 16.4439 88.1284 17.4602C87.6202 18.4448 87.3026 19.6993 87.1756 21.2238Z" fill="#091542"/>
<path d="M48.9985 36.1348V3.4541H54.1436L69.0547 23.9391C69.2453 24.1296 69.4517 24.3996 69.674 24.7489C69.9281 25.0983 70.1663 25.4476 70.3886 25.797C70.611 26.1464 70.7698 26.4322 70.865 26.6545H71.1032C71.1032 26.1781 71.1032 25.7176 71.1032 25.273C71.1032 24.8283 71.1032 24.3837 71.1032 23.9391V3.4541H76.2483V36.1348H71.2938L56.1921 15.4116C55.938 15.0305 55.6204 14.5541 55.2393 13.9824C54.8582 13.379 54.5723 12.9185 54.3818 12.6009H54.1436C54.1436 13.0455 54.1436 13.506 54.1436 13.9824C54.1436 14.4271 54.1436 14.9034 54.1436 15.4116V36.1348H48.9985Z" fill="#091542"/>
<defs>
<clipPath id="clip0_600_1148">
<rect width="38.2534" height="41.8119" fill="white" transform="translate(41.812 0.785156) rotate(90)"/>
</clipPath>
</defs>
</svg>
