<svg width="150" height="32" viewBox="0 0 150 32" fill="none" xmlns="http://www.w3.org/2000/svg">
<g clip-path="url(#clip0_4341_22)">
<path fill-rule="evenodd" clip-rule="evenodd" d="M33.9063 30.5138L30.3064 24.1576C30.2374 24.0357 30.1376 23.9345 30.0171 23.864C29.8967 23.7936 29.7598 23.7564 29.6205 23.7564L20.3199 23.7564C20.1813 23.7564 20.0451 23.7197 19.9251 23.65C19.8051 23.5802 19.7054 23.48 19.6361 23.3592L11.3233 9.11646C11.1102 8.74507 11.3766 8.28093 11.8027 8.28093C11.8999 8.28094 11.9953 8.30669 12.0794 8.35558C12.1636 8.40447 12.2334 8.4748 12.282 8.55948L20.3529 22.3802C20.422 22.5008 20.5214 22.6009 20.6412 22.6706C20.7609 22.7404 20.8967 22.7772 21.035 22.7775L28.2532 22.7918C28.8603 22.7931 29.2416 22.1328 28.9398 21.6024L21.845 9.13472C21.5436 8.60503 21.9235 7.94534 22.5301 7.94534L25.5002 7.94534C25.6039 7.94536 25.7066 7.92481 25.8024 7.88489C25.8982 7.84496 25.9852 7.78643 26.0586 7.71264C26.1319 7.63885 26.19 7.55125 26.2297 7.45484C26.2694 7.35843 26.2898 7.2551 26.2898 7.15075L26.2898 0.794493C26.2898 0.69015 26.2693 0.586829 26.2297 0.49043C26.19 0.394031 26.1318 0.306442 26.0585 0.232665C25.9852 0.158888 25.8982 0.100368 25.8024 0.0604474C25.7066 0.0205264 25.6039 -1.38349e-05 25.5002 -3.65397e-07L3.94765 -1.30749e-06C1.76763 -1.40278e-06 0.000375844 1.77858 0.000375748 3.97267C-0.000887696 4.75687 0.229582 5.52374 0.662486 6.17579L14.1258 29.6443C14.8727 30.9464 16.2414 31.6619 17.6366 31.6304C17.6995 31.6289 17.7624 31.6335 17.8244 31.6441C18.0453 31.682 18.2744 31.7018 18.5107 31.7018L33.2205 31.7018C33.8263 31.7018 34.2063 31.0434 33.9063 30.5138Z" fill="#FF8B4A"/>
<path d="M25.7626 -1.64426e-07C25.8844 -1.33664e-05 26.0041 0.0384814 26.1095 0.111573C26.2148 0.184665 26.3021 0.28975 26.3624 0.416151L29.5103 7.00997C29.7727 7.55948 29.4403 8.24246 28.9106 8.24246L3.45169 8.24246C1.54533 8.24246 1.57456 6.65737 -8.76321e-06 4.12117C4.40879 2.85316 4.42115 1.90211 4.40879 7.35529e-09L25.7626 -1.64426e-07Z" fill="#FF8B4A"/>
</g>
<path d="M145.895 31.563V26.7688H145.618C145.197 27.4531 144.671 28.019 144.039 28.4664C143.407 28.9139 142.697 29.2429 141.907 29.4534C141.118 29.664 140.275 29.7693 139.38 29.7693C137.801 29.7693 136.406 29.3876 135.196 28.6244C133.985 27.8611 133.037 26.6898 132.353 25.1106C131.669 23.5051 131.327 21.4653 131.327 18.9912C131.327 16.4381 131.656 14.3588 132.314 12.7533C132.998 11.1478 133.959 9.96339 135.196 9.2001C136.433 8.43682 137.893 8.05518 139.578 8.05518C140.947 8.05518 142.184 8.33154 143.289 8.88426C144.394 9.43698 145.289 10.2661 145.974 11.3715H146.25L146.645 8.52894H150.001V31.563H145.895ZM140.762 26.2161C141.578 26.2161 142.289 26.0845 142.894 25.8213C143.526 25.5581 144.065 25.1501 144.513 24.5974C144.96 24.0183 145.303 23.2814 145.539 22.3865C145.776 21.4916 145.895 20.4256 145.895 19.1886V18.6359C145.895 17.1356 145.71 15.8591 145.342 14.8063C144.974 13.7535 144.408 12.9639 143.644 12.4375C142.907 11.8848 141.934 11.6084 140.723 11.6084C139.538 11.6084 138.565 11.8453 137.801 12.319C137.064 12.7928 136.512 13.5429 136.143 14.5694C135.775 15.5959 135.59 16.9382 135.59 18.5964V19.307C135.59 20.8862 135.761 22.1891 136.104 23.2156C136.472 24.2421 137.038 25.0053 137.801 25.5054C138.565 25.9792 139.552 26.2161 140.762 26.2161Z" fill="black"/>
<path d="M115.976 29.7693C115.318 29.7693 114.607 29.6903 113.844 29.5324C113.081 29.3745 112.357 29.085 111.673 28.6638C111.015 28.2427 110.475 27.6637 110.054 26.9267C109.633 26.1634 109.422 25.1764 109.422 23.9657C109.422 22.5444 109.751 21.3732 110.409 20.452C111.067 19.5308 111.989 18.8069 113.173 18.2805C114.357 17.7541 115.766 17.3857 117.397 17.1751C119.056 16.9645 120.858 16.8593 122.806 16.8593V14.8063C122.806 14.122 122.688 13.5166 122.451 12.9902C122.24 12.4638 121.832 12.0558 121.227 11.7663C120.648 11.4768 119.806 11.332 118.7 11.332C117.595 11.332 116.726 11.4768 116.095 11.7663C115.489 12.0295 115.055 12.3717 114.792 12.7928C114.555 13.1876 114.436 13.6219 114.436 14.0956V14.6878H110.488C110.462 14.5562 110.449 14.4246 110.449 14.293C110.449 14.1614 110.449 14.0035 110.449 13.8193C110.449 12.5822 110.791 11.5426 111.475 10.7003C112.186 9.83179 113.173 9.17378 114.436 8.72634C115.7 8.2789 117.16 8.05518 118.819 8.05518C120.608 8.05518 122.095 8.31838 123.28 8.84478C124.491 9.34486 125.399 10.0687 126.004 11.0162C126.609 11.9637 126.912 13.1086 126.912 14.451V24.9922C126.912 25.4923 127.031 25.8476 127.267 26.0581C127.531 26.2687 127.833 26.374 128.175 26.374H129.597V29.1376C129.281 29.2692 128.886 29.4008 128.412 29.5324C127.939 29.664 127.386 29.7298 126.754 29.7298C126.044 29.7298 125.438 29.5982 124.938 29.335C124.464 29.0981 124.07 28.756 123.754 28.3085C123.464 27.8348 123.267 27.3084 123.161 26.7293H122.925C122.451 27.3347 121.872 27.8742 121.187 28.348C120.529 28.7954 119.766 29.1376 118.898 29.3745C118.029 29.6377 117.055 29.7693 115.976 29.7693ZM117.121 26.374C117.937 26.374 118.687 26.2555 119.371 26.0187C120.082 25.7555 120.687 25.4001 121.187 24.9527C121.688 24.4789 122.082 23.9262 122.372 23.2945C122.661 22.6365 122.806 21.9259 122.806 21.1626V19.7808C120.99 19.7808 119.398 19.8861 118.029 20.0966C116.66 20.3072 115.594 20.702 114.831 21.281C114.068 21.8338 113.686 22.6102 113.686 23.6104C113.686 24.2157 113.818 24.729 114.081 25.1501C114.344 25.5449 114.739 25.8476 115.265 26.0581C115.792 26.2687 116.41 26.374 117.121 26.374Z" fill="black"/>
<path d="M88.5824 29.2954L96.0047 18.6357L89.0167 8.52881H93.9912L98.5709 15.4773H98.8078L103.427 8.52881H108.125L101.098 18.5173L108.52 29.2954H103.585L98.5314 21.6757H98.334L93.2805 29.2954H88.5824Z" fill="black"/>
<path d="M77.654 29.7693C75.5221 29.7693 73.7323 29.3876 72.2847 28.6244C70.8634 27.8348 69.7843 26.6372 69.0473 25.0317C68.3104 23.4261 67.9419 21.3863 67.9419 18.9122C67.9419 16.4118 68.3104 14.372 69.0473 12.7928C69.7843 11.1873 70.8766 10.0029 72.3242 9.23958C73.7718 8.44998 75.5747 8.05518 77.733 8.05518C79.707 8.05518 81.352 8.43682 82.668 9.2001C84.0103 9.93707 85.0237 11.0688 85.708 12.5954C86.3923 14.122 86.7345 16.0433 86.7345 18.3595V19.9387H72.1663C72.2189 21.4126 72.4426 22.6497 72.8374 23.6499C73.2322 24.6237 73.8244 25.3475 74.614 25.8213C75.43 26.2687 76.4565 26.4924 77.6935 26.4924C78.4568 26.4924 79.1411 26.4003 79.7465 26.2161C80.3518 26.0055 80.8651 25.716 81.2862 25.3475C81.7073 24.9527 82.0363 24.4921 82.2732 23.9657C82.5101 23.413 82.6285 22.7944 82.6285 22.1101H86.6555C86.6555 23.3472 86.4449 24.4395 86.0238 25.387C85.6027 26.3345 84.9842 27.1373 84.1683 27.7953C83.3786 28.427 82.4311 28.9139 81.3257 29.256C80.2202 29.5982 78.9963 29.7693 77.654 29.7693ZM72.2452 16.9382H82.4311C82.4311 15.9117 82.3127 15.0563 82.0758 14.372C81.8652 13.6614 81.5494 13.0823 81.1283 12.6349C80.7072 12.1874 80.2071 11.8716 79.628 11.6874C79.049 11.4768 78.391 11.3715 77.654 11.3715C76.5486 11.3715 75.6011 11.5689 74.8114 11.9637C74.0482 12.3585 73.456 12.977 73.0348 13.8193C72.6137 14.6352 72.3505 15.6749 72.2452 16.9382Z" fill="black"/>
<path d="M40.6068 29.2953V2.21191H44.8707L57.228 19.1884C57.3859 19.3463 57.557 19.57 57.7412 19.8596C57.9518 20.1491 58.1492 20.4386 58.3334 20.7281C58.5177 21.0176 58.6493 21.2545 58.7282 21.4388H58.9256C58.9256 21.044 58.9256 20.6623 58.9256 20.2938C58.9256 19.9254 58.9256 19.5569 58.9256 19.1884V2.21191H63.1895V29.2953H59.0835L46.5683 12.1214C46.3578 11.8056 46.0946 11.4108 45.7787 10.937C45.4629 10.437 45.226 10.0553 45.0681 9.79211H44.8707C44.8707 10.1606 44.8707 10.5422 44.8707 10.937C44.8707 11.3055 44.8707 11.7003 44.8707 12.1214V29.2953H40.6068Z" fill="black"/>
<defs>
<clipPath id="clip0_4341_22">
<rect width="31.7018" height="34.6508" fill="white" transform="translate(34.6508) rotate(90)"/>
</clipPath>
</defs>
</svg>
