<svg width="150" height="32" viewBox="0 0 150 32" fill="none" xmlns="http://www.w3.org/2000/svg">
<g clip-path="url(#clip0_30_52)">
<path fill-rule="evenodd" clip-rule="evenodd" d="M33.906 30.5138L30.306 24.1576C30.237 24.0357 30.1372 23.9345 30.0168 23.864C29.8963 23.7936 29.7595 23.7564 29.6201 23.7564L20.3195 23.7564C20.1809 23.7564 20.0448 23.7197 19.9248 23.65C19.8047 23.5802 19.7051 23.48 19.6358 23.3592L11.3229 9.11646C11.1098 8.74507 11.3762 8.28093 11.8023 8.28093C11.8995 8.28094 11.9949 8.30669 12.0791 8.35558C12.1632 8.40448 12.2331 8.4748 12.2817 8.55948L20.3525 22.3802C20.4217 22.5008 20.5211 22.6009 20.6408 22.6706C20.7605 22.7404 20.8963 22.7772 21.0346 22.7775L28.2528 22.7918C28.86 22.7931 29.2412 22.1328 28.9395 21.6024L21.8447 9.13472C21.5432 8.60503 21.9231 7.94534 22.5297 7.94534L25.4999 7.94534C25.6036 7.94536 25.7062 7.92481 25.802 7.88489C25.8978 7.84496 25.9849 7.78643 26.0582 7.71264C26.1315 7.63885 26.1897 7.55125 26.2293 7.45484C26.269 7.35843 26.2894 7.2551 26.2894 7.15075L26.2894 0.794493C26.2894 0.69015 26.269 0.586829 26.2293 0.49043C26.1896 0.394031 26.1315 0.306442 26.0581 0.232665C25.9848 0.158888 25.8978 0.100368 25.802 0.0604474C25.7062 0.0205264 25.6035 -1.38349e-05 25.4999 -3.65397e-07L3.94729 -1.30749e-06C1.76727 -1.40278e-06 1.13663e-05 1.77858 1.12704e-05 3.97267C-0.00125524 4.75687 0.229217 5.52375 0.662121 6.17579L14.1254 29.6443C14.8724 30.9464 16.241 31.6619 17.6362 31.6304C17.6991 31.6289 17.762 31.6335 17.8241 31.6441C18.045 31.682 18.274 31.7018 18.5103 31.7018L33.2201 31.7018C33.8259 31.7018 34.206 31.0434 33.906 30.5138Z" fill="#7572FD"/>
<path d="M25.7626 -1.64426e-07C25.8844 -1.33664e-05 26.0041 0.0384814 26.1095 0.111573C26.2148 0.184665 26.3021 0.28975 26.3624 0.416151L29.5103 7.00997C29.7727 7.55948 29.4403 8.24246 28.9106 8.24246L3.45169 8.24246C1.54533 8.24246 1.57456 6.65737 -7.80954e-06 4.12117C4.40879 2.85316 4.42115 1.90211 4.40879 7.35525e-09L25.7626 -1.64426e-07Z" fill="#7572FD"/>
</g>
<path d="M145.894 31.5626V26.7684H145.618C145.197 27.4527 144.67 28.0186 144.038 28.4661C143.407 28.9135 142.696 29.2425 141.907 29.4531C141.117 29.6636 140.275 29.7689 139.38 29.7689C137.801 29.7689 136.406 29.3873 135.195 28.624C133.984 27.8607 133.037 26.6895 132.352 25.1103C131.668 23.5047 131.326 21.4649 131.326 18.9908C131.326 16.4378 131.655 14.3585 132.313 12.753C132.997 11.1474 133.958 9.96302 135.195 9.19974C136.432 8.43645 137.893 8.05481 139.577 8.05481C140.946 8.05481 142.183 8.33117 143.288 8.88389C144.394 9.43662 145.289 10.2657 145.973 11.3711H146.249L146.644 8.52857H150V31.5626H145.894ZM140.762 26.2157C141.578 26.2157 142.288 26.0841 142.894 25.8209C143.525 25.5577 144.065 25.1497 144.512 24.597C144.96 24.018 145.302 23.281 145.539 22.3861C145.776 21.4912 145.894 20.4253 145.894 19.1882V18.6355C145.894 17.1353 145.71 15.8587 145.341 14.8059C144.973 13.7531 144.407 12.9635 143.644 12.4371C142.907 11.8844 141.933 11.608 140.722 11.608C139.538 11.608 138.564 11.8449 137.801 12.3187C137.064 12.7924 136.511 13.5426 136.142 14.569C135.774 15.5955 135.59 16.9379 135.59 18.596V19.3067C135.59 20.8859 135.761 22.1887 136.103 23.2152C136.471 24.2417 137.037 25.005 137.801 25.5051C138.564 25.9788 139.551 26.2157 140.762 26.2157Z" fill="black"/>
<path d="M115.976 29.7689C115.318 29.7689 114.607 29.69 113.844 29.532C113.081 29.3741 112.357 29.0846 111.672 28.6635C111.014 28.2423 110.475 27.6633 110.054 26.9263C109.633 26.1631 109.422 25.1761 109.422 23.9653C109.422 22.544 109.751 21.3728 110.409 20.4516C111.067 19.5304 111.988 18.8066 113.173 18.2802C114.357 17.7538 115.765 17.3853 117.397 17.1747C119.055 16.9642 120.858 16.8589 122.806 16.8589V14.8059C122.806 14.1216 122.687 13.5162 122.451 12.9898C122.24 12.4634 121.832 12.0555 121.227 11.7659C120.648 11.4764 119.805 11.3317 118.7 11.3317C117.595 11.3317 116.726 11.4764 116.094 11.7659C115.489 12.0291 115.055 12.3713 114.791 12.7924C114.555 13.1872 114.436 13.6215 114.436 14.0953V14.6875H110.488C110.462 14.5559 110.449 14.4243 110.449 14.2927C110.449 14.1611 110.449 14.0032 110.449 13.8189C110.449 12.5819 110.791 11.5422 111.475 10.7C112.186 9.83142 113.173 9.17342 114.436 8.72597C115.699 8.27853 117.16 8.05481 118.818 8.05481C120.608 8.05481 122.095 8.31801 123.28 8.84442C124.49 9.3445 125.398 10.0683 126.004 11.0158C126.609 11.9633 126.912 13.1083 126.912 14.4506V24.9918C126.912 25.4919 127.03 25.8472 127.267 26.0578C127.53 26.2683 127.833 26.3736 128.175 26.3736H129.596V29.1372C129.281 29.2688 128.886 29.4004 128.412 29.532C127.938 29.6636 127.386 29.7294 126.754 29.7294C126.043 29.7294 125.438 29.5978 124.938 29.3346C124.464 29.0978 124.069 28.7556 123.753 28.3081C123.464 27.8344 123.267 27.308 123.161 26.7289H122.924C122.451 27.3343 121.872 27.8739 121.187 28.3476C120.529 28.7951 119.766 29.1372 118.897 29.3741C118.029 29.6373 117.055 29.7689 115.976 29.7689ZM117.121 26.3736C117.937 26.3736 118.687 26.2552 119.371 26.0183C120.082 25.7551 120.687 25.3998 121.187 24.9523C121.687 24.4786 122.082 23.9258 122.372 23.2942C122.661 22.6362 122.806 21.9255 122.806 21.1622V19.7804C120.99 19.7804 119.397 19.8857 118.029 20.0963C116.66 20.3068 115.594 20.7016 114.831 21.2807C114.068 21.8334 113.686 22.6098 113.686 23.61C113.686 24.2154 113.818 24.7286 114.081 25.1497C114.344 25.5445 114.739 25.8472 115.265 26.0578C115.792 26.2683 116.41 26.3736 117.121 26.3736Z" fill="black"/>
<path d="M88.5821 29.2952L96.0044 18.6356L89.0164 8.52863H93.9909L98.5706 15.4771H98.8075L103.427 8.52863H108.125L101.097 18.5171L108.52 29.2952H103.585L98.5311 21.6755H98.3337L93.2803 29.2952H88.5821Z" fill="black"/>
<path d="M77.6538 29.7689C75.5219 29.7689 73.7321 29.3873 72.2845 28.624C70.8632 27.8344 69.7841 26.6368 69.0471 25.0313C68.3102 23.4258 67.9417 21.386 67.9417 18.9119C67.9417 16.4115 68.3102 14.3716 69.0471 12.7924C69.7841 11.1869 70.8764 10.0025 72.324 9.23922C73.7716 8.44961 75.5745 8.05481 77.7328 8.05481C79.7068 8.05481 81.3518 8.43645 82.6678 9.19974C84.0101 9.9367 85.0234 11.0685 85.7078 12.595C86.3921 14.1216 86.7342 16.043 86.7342 18.3591V19.9383H72.1661C72.2187 21.4123 72.4424 22.6493 72.8372 23.6495C73.232 24.6233 73.8242 25.3471 74.6138 25.8209C75.4298 26.2683 76.4562 26.4921 77.6933 26.4921C78.4566 26.4921 79.1409 26.3999 79.7463 26.2157C80.3516 26.0051 80.8649 25.7156 81.286 25.3471C81.7071 24.9523 82.0361 24.4917 82.273 23.9653C82.5099 23.4126 82.6283 22.7941 82.6283 22.1098H86.6553C86.6553 23.3468 86.4447 24.4391 86.0236 25.3866C85.6025 26.3341 84.984 27.1369 84.168 27.7949C83.3784 28.4266 82.4309 28.9135 81.3255 29.2557C80.22 29.5978 78.9961 29.7689 77.6538 29.7689ZM72.245 16.9379H82.4309C82.4309 15.9114 82.3125 15.056 82.0756 14.3716C81.865 13.661 81.5492 13.082 81.1281 12.6345C80.7069 12.1871 80.2069 11.8712 79.6278 11.687C79.0488 11.4764 78.3908 11.3711 77.6538 11.3711C76.5484 11.3711 75.6008 11.5685 74.8112 11.9633C74.048 12.3582 73.4557 12.9767 73.0346 13.8189C72.6135 14.6348 72.3503 15.6745 72.245 16.9379Z" fill="black"/>
<path d="M40.6066 29.2951V2.21173H44.8705L57.2278 19.1882C57.3857 19.3461 57.5568 19.5699 57.741 19.8594C57.9516 20.1489 58.149 20.4384 58.3332 20.7279C58.5174 21.0175 58.649 21.2543 58.728 21.4386H58.9254C58.9254 21.0438 58.9254 20.6621 58.9254 20.2937C58.9254 19.9252 58.9254 19.5567 58.9254 19.1882V2.21173H63.1893V29.2951H59.0833L46.5681 12.1213C46.3575 11.8054 46.0943 11.4106 45.7785 10.9369C45.4627 10.4368 45.2258 10.0551 45.0679 9.79193H44.8705C44.8705 10.1604 44.8705 10.5421 44.8705 10.9369C44.8705 11.3053 44.8705 11.7001 44.8705 12.1213V29.2951H40.6066Z" fill="black"/>
<defs>
<clipPath id="clip0_30_52">
<rect width="31.7018" height="34.6508" fill="white" transform="translate(34.6508) rotate(90)"/>
</clipPath>
</defs>
</svg>
