<svg width="150" height="32" viewBox="0 0 150 32" fill="none" xmlns="http://www.w3.org/2000/svg">
<g clip-path="url(#clip0_581_501)">
<path fill-rule="evenodd" clip-rule="evenodd" d="M33.9065 30.5138L30.3065 24.1576C30.2375 24.0357 30.1377 23.9345 30.0173 23.864C29.8968 23.7936 29.76 23.7564 29.6206 23.7564L20.32 23.7564C20.1814 23.7564 20.0453 23.7197 19.9253 23.65C19.8052 23.5802 19.7056 23.48 19.6363 23.3592L11.3234 9.11646C11.1103 8.74507 11.3767 8.28093 11.8028 8.28093C11.9 8.28094 11.9954 8.30669 12.0796 8.35558C12.1637 8.40448 12.2336 8.4748 12.2821 8.55948L20.353 22.3802C20.4222 22.5008 20.5216 22.6009 20.6413 22.6706C20.761 22.7404 20.8968 22.7772 21.0351 22.7775L28.2533 22.7918C28.8604 22.7931 29.2417 22.1328 28.94 21.6024L21.8451 9.13472C21.5437 8.60503 21.9236 7.94534 22.5302 7.94534L25.5004 7.94534C25.604 7.94536 25.7067 7.92481 25.8025 7.88489C25.8983 7.84496 25.9854 7.78643 26.0587 7.71264C26.132 7.63885 26.1901 7.55125 26.2298 7.45484C26.2695 7.35843 26.2899 7.2551 26.2899 7.15075L26.2899 0.794493C26.2899 0.69015 26.2695 0.586829 26.2298 0.49043C26.1901 0.394031 26.132 0.306442 26.0586 0.232665C25.9853 0.158888 25.8983 0.100368 25.8025 0.0604474C25.7067 0.0205264 25.604 -1.38349e-05 25.5004 -3.65397e-07L3.94777 -1.30749e-06C1.76775 -1.40278e-06 0.000499648 1.77858 0.000499552 3.97267C-0.000766962 4.75687 0.229706 5.52375 0.662609 6.17579L14.1259 29.6443C14.8728 30.9464 16.2415 31.6619 17.6367 31.6304C17.6996 31.6289 17.7625 31.6335 17.8246 31.6441C18.0455 31.682 18.2745 31.7018 18.5108 31.7018L33.2206 31.7018C33.8264 31.7018 34.2065 31.0434 33.9065 30.5138Z" fill="#FF8B4A"/>
<path d="M25.7627 -1.64426e-07C25.8846 -1.33664e-05 26.0042 0.0384814 26.1096 0.111573C26.2149 0.184665 26.3022 0.28975 26.3625 0.416151L29.5104 7.00997C29.7728 7.55948 29.4404 8.24246 28.9107 8.24246L3.45181 8.24246C1.54545 8.24246 1.57468 6.65737 0.000114261 4.12117C4.40891 2.85316 4.42127 1.90211 4.40891 7.35525e-09L25.7627 -1.64426e-07Z" fill="#FF8B4A"/>
</g>
<path d="M145.895 31.5626V26.7684H145.618C145.197 27.4527 144.671 28.0186 144.039 28.4661C143.408 28.9135 142.697 29.2425 141.907 29.4531C141.118 29.6636 140.275 29.7689 139.381 29.7689C137.801 29.7689 136.406 29.3873 135.196 28.624C133.985 27.8607 133.037 26.6895 132.353 25.1103C131.669 23.5047 131.327 21.4649 131.327 18.9908C131.327 16.4378 131.656 14.3585 132.314 12.753C132.998 11.1474 133.959 9.96302 135.196 9.19974C136.433 8.43645 137.894 8.05481 139.578 8.05481C140.947 8.05481 142.184 8.33117 143.289 8.88389C144.395 9.43662 145.289 10.2657 145.974 11.3711H146.25L146.645 8.52857H150.001V31.5626H145.895ZM140.762 26.2157C141.578 26.2157 142.289 26.0841 142.894 25.8209C143.526 25.5577 144.066 25.1497 144.513 24.597C144.96 24.018 145.303 23.281 145.54 22.3861C145.776 21.4912 145.895 20.4253 145.895 19.1882V18.6355C145.895 17.1353 145.711 15.8587 145.342 14.8059C144.974 13.7531 144.408 12.9635 143.644 12.4371C142.908 11.8844 141.934 11.608 140.723 11.608C139.539 11.608 138.565 11.8449 137.801 12.3187C137.064 12.7924 136.512 13.5426 136.143 14.569C135.775 15.5955 135.591 16.9379 135.591 18.596V19.3067C135.591 20.8859 135.762 22.1887 136.104 23.2152C136.472 24.2417 137.038 25.005 137.801 25.5051C138.565 25.9788 139.552 26.2157 140.762 26.2157Z" fill="white"/>
<path d="M115.976 29.7689C115.318 29.7689 114.607 29.69 113.844 29.532C113.081 29.3741 112.357 29.0846 111.673 28.6635C111.015 28.2423 110.475 27.6633 110.054 26.9263C109.633 26.1631 109.422 25.1761 109.422 23.9653C109.422 22.544 109.751 21.3728 110.409 20.4516C111.067 19.5304 111.989 18.8066 113.173 18.2802C114.357 17.7538 115.766 17.3853 117.397 17.1747C119.056 16.9642 120.858 16.8589 122.806 16.8589V14.8059C122.806 14.1216 122.688 13.5162 122.451 12.9898C122.24 12.4634 121.832 12.0555 121.227 11.7659C120.648 11.4764 119.806 11.3317 118.7 11.3317C117.595 11.3317 116.726 11.4764 116.095 11.7659C115.489 12.0291 115.055 12.3713 114.792 12.7924C114.555 13.1872 114.436 13.6215 114.436 14.0953V14.6875H110.488C110.462 14.5559 110.449 14.4243 110.449 14.2927C110.449 14.1611 110.449 14.0032 110.449 13.8189C110.449 12.5819 110.791 11.5422 111.475 10.7C112.186 9.83142 113.173 9.17342 114.436 8.72597C115.7 8.27853 117.16 8.05481 118.819 8.05481C120.608 8.05481 122.095 8.31801 123.28 8.84442C124.491 9.3445 125.399 10.0683 126.004 11.0158C126.609 11.9633 126.912 13.1083 126.912 14.4506V24.9918C126.912 25.4919 127.031 25.8472 127.267 26.0578C127.531 26.2683 127.833 26.3736 128.175 26.3736H129.597V29.1372C129.281 29.2688 128.886 29.4004 128.412 29.532C127.939 29.6636 127.386 29.7294 126.754 29.7294C126.044 29.7294 125.438 29.5978 124.938 29.3346C124.464 29.0978 124.07 28.7556 123.754 28.3081C123.464 27.8344 123.267 27.308 123.161 26.7289H122.925C122.451 27.3343 121.872 27.8739 121.187 28.3476C120.529 28.7951 119.766 29.1372 118.898 29.3741C118.029 29.6373 117.055 29.7689 115.976 29.7689ZM117.121 26.3736C117.937 26.3736 118.687 26.2552 119.371 26.0183C120.082 25.7551 120.687 25.3998 121.187 24.9523C121.688 24.4786 122.082 23.9258 122.372 23.2942C122.661 22.6362 122.806 21.9255 122.806 21.1622V19.7804C120.99 19.7804 119.398 19.8857 118.029 20.0963C116.66 20.3068 115.594 20.7016 114.831 21.2807C114.068 21.8334 113.686 22.6098 113.686 23.61C113.686 24.2154 113.818 24.7286 114.081 25.1497C114.344 25.5445 114.739 25.8472 115.265 26.0578C115.792 26.2683 116.41 26.3736 117.121 26.3736Z" fill="white"/>
<path d="M88.5825 29.2952L96.0048 18.6356L89.0168 8.52863H93.9913L98.571 15.4771H98.8079L103.427 8.52863H108.125L101.098 18.5171L108.52 29.2952H103.585L98.5315 21.6755H98.3341L93.2807 29.2952H88.5825Z" fill="white"/>
<path d="M77.654 29.7689C75.5221 29.7689 73.7323 29.3873 72.2847 28.624C70.8634 27.8344 69.7843 26.6368 69.0473 25.0313C68.3104 23.4258 67.9419 21.386 67.9419 18.9119C67.9419 16.4115 68.3104 14.3716 69.0473 12.7924C69.7843 11.1869 70.8766 10.0025 72.3242 9.23922C73.7718 8.44961 75.5747 8.05481 77.733 8.05481C79.707 8.05481 81.352 8.43645 82.668 9.19974C84.0103 9.9367 85.0237 11.0685 85.708 12.595C86.3923 14.1216 86.7345 16.043 86.7345 18.3591V19.9383H72.1663C72.2189 21.4123 72.4426 22.6493 72.8374 23.6495C73.2322 24.6233 73.8244 25.3471 74.614 25.8209C75.43 26.2683 76.4565 26.4921 77.6935 26.4921C78.4568 26.4921 79.1411 26.3999 79.7465 26.2157C80.3518 26.0051 80.8651 25.7156 81.2862 25.3471C81.7073 24.9523 82.0363 24.4917 82.2732 23.9653C82.5101 23.4126 82.6285 22.7941 82.6285 22.1098H86.6555C86.6555 23.3468 86.4449 24.4391 86.0238 25.3866C85.6027 26.3341 84.9842 27.1369 84.1683 27.7949C83.3786 28.4266 82.4311 28.9135 81.3257 29.2557C80.2202 29.5978 78.9963 29.7689 77.654 29.7689ZM72.2452 16.9379H82.4311C82.4311 15.9114 82.3127 15.056 82.0758 14.3716C81.8652 13.661 81.5494 13.082 81.1283 12.6345C80.7072 12.1871 80.2071 11.8712 79.628 11.687C79.049 11.4764 78.391 11.3711 77.654 11.3711C76.5486 11.3711 75.6011 11.5685 74.8114 11.9633C74.0482 12.3582 73.456 12.9767 73.0348 13.8189C72.6137 14.6348 72.3505 15.6745 72.2452 16.9379Z" fill="white"/>
<path d="M40.6069 29.2951V2.21173H44.8708L57.2281 19.1882C57.386 19.3461 57.5571 19.5699 57.7413 19.8594C57.9519 20.1489 58.1493 20.4384 58.3335 20.7279C58.5178 21.0175 58.6494 21.2543 58.7283 21.4386H58.9257C58.9257 21.0438 58.9257 20.6621 58.9257 20.2937C58.9257 19.9252 58.9257 19.5567 58.9257 19.1882V2.21173H63.1896V29.2951H59.0837L46.5684 12.1213C46.3579 11.8054 46.0947 11.4106 45.7788 10.9369C45.463 10.4368 45.2261 10.0551 45.0682 9.79193H44.8708C44.8708 10.1604 44.8708 10.5421 44.8708 10.9369C44.8708 11.3053 44.8708 11.7001 44.8708 12.1213V29.2951H40.6069Z" fill="white"/>
<defs>
<clipPath id="clip0_581_501">
<rect width="31.7018" height="34.6508" fill="white" transform="translate(34.6509) rotate(90)"/>
</clipPath>
</defs>
</svg>
