<svg width="226" height="117" viewBox="0 0 226 117" fill="none" xmlns="http://www.w3.org/2000/svg">
<path opacity="0.08" d="M224.796 1.37305C224.739 0.823679 224.248 0.424284 223.698 0.480973L214.746 1.40477C214.197 1.46146 213.797 1.95276 213.854 2.50213C213.911 3.0515 214.402 3.45089 214.951 3.3942L222.909 2.57305L223.73 10.5308C223.787 11.0802 224.278 11.4796 224.828 11.4229C225.377 11.3662 225.776 10.8749 225.72 10.3255L224.796 1.37305ZM0.312935 116.518C24.4688 113.745 64.6152 104.705 106.667 86.5919C148.716 68.4802 192.743 41.2666 224.577 2.10648L223.025 0.844898C191.463 39.67 147.748 66.7194 105.875 84.7551C64.0047 102.79 24.0481 111.781 0.0849033 114.531L0.312935 116.518Z" fill="#091542"/>
</svg>
