<svg width="65" height="19" viewBox="0 0 65 19" fill="none" xmlns="http://www.w3.org/2000/svg">
<g clip-path="url(#clip0_187_163)">
<path d="M47.2739 14.1047C48.4344 14.1047 49.3753 13.1686 49.3753 12.0138C49.3753 10.859 48.4344 9.92285 47.2739 9.92285C46.1133 9.92285 45.1725 10.859 45.1725 12.0138C45.1725 13.1686 46.1133 14.1047 47.2739 14.1047Z" fill="#E62415"/>
<path d="M16.6853 0.174805H19.4661V18.0185H16.6853V0.174805ZM29.5939 12.5161C29.5939 15.283 27.3187 15.5031 26.6235 15.5031C24.8855 15.5031 24.6327 13.8838 24.6327 12.9091V6.00743H21.8361V12.8934C21.8203 14.607 22.3101 16.0219 23.2581 16.9652C24.119 17.7289 25.2159 18.1777 26.3677 18.2377C27.5195 18.2978 28.6574 17.9654 29.5939 17.2954V18.0185H32.3904V6.00743H29.5939V12.5161ZM38.426 1.96704H35.6294V6.00743H33.686V8.63289H35.6294V18.0185H38.426V8.63289H40.717V6.00743H38.426V1.96704ZM49.7703 14.607C49.1383 15.173 48.301 15.4874 47.3846 15.4874C46.919 15.5005 46.4557 15.4187 46.0231 15.247C45.5905 15.0752 45.1979 14.8172 44.8693 14.4888C44.5407 14.1603 44.2832 13.7685 44.1125 13.3373C43.9419 12.9061 43.8617 12.4447 43.877 11.9815C43.877 9.95349 45.3148 8.53857 47.3846 8.53857C48.2852 8.53857 49.1383 8.83727 49.7861 9.40324L50.2285 9.78055L52.1877 7.83111L51.6979 7.39091C50.5115 6.33794 48.9743 5.76088 47.3846 5.77161C43.7506 5.77161 41.112 8.38135 41.112 11.9658C41.0927 12.7922 41.2415 13.6139 41.5495 14.3815C41.8575 15.1492 42.3183 15.847 42.9042 16.4329C43.4901 17.0189 44.189 17.4809 44.959 17.7912C45.7289 18.1015 46.554 18.2537 47.3846 18.2386C49.0435 18.2386 50.5919 17.657 51.7295 16.6036L52.2035 16.1634L50.2127 14.214L49.7703 14.607ZM62.6789 7.06076C61.8179 6.2971 60.7211 5.84825 59.5693 5.78823C58.4175 5.72821 57.2795 6.06061 56.3431 6.73061V0.174805H53.5465V18.0185H56.3431V11.5256C56.3431 8.75867 58.6183 8.53857 59.3135 8.53857C61.0515 8.53857 61.3043 10.1579 61.3043 11.1326V18.0343H64.1009V11.1326C64.1852 9.64181 63.6741 8.17826 62.6789 7.06076ZM12.5615 13.7423C12.0175 14.2985 11.3662 14.7397 10.6468 15.0395C9.92738 15.3393 9.15455 15.4917 8.37457 15.4874C5.13558 15.4874 2.7814 12.9563 2.7814 9.48185C2.7814 5.99171 5.13558 3.46057 8.37457 3.46057C9.93876 3.46057 11.424 4.0737 12.5457 5.18992L12.9881 5.63012L14.9315 3.69639L14.5049 3.25619C13.7032 2.44487 12.7464 1.80152 11.6908 1.3641C10.6352 0.92668 9.50223 0.704045 8.35877 0.709331C3.60299 0.709331 0.000610352 4.48246 0.000610352 9.49757C0.000610352 14.4812 3.60299 18.2544 8.35877 18.2544C10.713 18.2544 12.8933 17.3425 14.5049 15.6918L14.9315 15.2516L13.0039 13.2864L12.5615 13.7423Z" fill="#17313B"/>
</g>
<defs>
<clipPath id="clip0_187_163">
<rect width="64.1003" height="18.0796" fill="white" transform="translate(0.000610352 0.174805)"/>
</clipPath>
</defs>
</svg>
