<svg width="55" height="19" viewBox="0 0 55 19" fill="none" xmlns="http://www.w3.org/2000/svg">
<g clip-path="url(#clip0_187_268)">
<path d="M6.71537 0.168945H7.2002C8.88339 0.206136 10.5391 0.894163 11.7284 2.11216C11.2893 2.56774 10.841 3.00473 10.4111 3.46032C9.74329 2.84667 8.93828 2.37249 8.06009 2.20513C6.7611 1.9262 5.36149 2.17724 4.2729 2.93035C3.08369 3.72065 2.27868 5.05951 2.10487 6.49135C1.91277 7.9046 2.30612 9.39222 3.21176 10.4893C4.0808 11.5586 5.40723 12.228 6.7794 12.2745C8.06009 12.3489 9.39567 11.9491 10.3287 11.0379C11.0606 10.3964 11.399 9.42012 11.5088 8.47176C9.99028 8.47176 8.47174 8.48105 6.95321 8.47176V6.55644H13.3475C13.6768 8.61122 13.2012 10.9263 11.6643 12.3954C10.6398 13.4367 9.22186 14.0504 7.77651 14.1712C6.3769 14.3107 4.93154 14.0411 3.68744 13.353C2.19635 12.5441 1.00714 11.1774 0.421676 9.56888C-0.127193 8.09055 -0.136341 6.41697 0.375937 4.92935C0.842475 3.57189 1.73896 2.37249 2.89158 1.5357C3.99847 0.70821 5.34319 0.252624 6.71537 0.168945Z" fill="#3780FF"/>
<path d="M43.3975 0.652344H45.3551V13.9294C44.7056 13.9294 44.047 13.9387 43.3975 13.9201C43.4066 9.50371 43.3975 5.07803 43.3975 0.652344Z" fill="#38B137"/>
<path d="M17.7018 5.25435C18.9093 5.02191 20.2174 5.28225 21.2145 6.01676C22.1202 6.6676 22.7514 7.69034 22.9435 8.80606C23.1905 10.0984 22.8794 11.5117 22.0561 12.5344C21.1688 13.678 19.7143 14.2917 18.2964 14.1987C16.9974 14.1243 15.735 13.4642 14.9666 12.3857C14.0975 11.1956 13.8871 9.55917 14.3628 8.16452C14.8385 6.6676 16.1832 5.52398 17.7018 5.25435ZM17.9762 7.02091C17.4822 7.15107 17.0248 7.4393 16.6955 7.8484C15.8082 8.92693 15.8631 10.6842 16.8419 11.6883C17.3999 12.2648 18.2415 12.5344 19.0191 12.3764C19.7417 12.2462 20.3729 11.7534 20.7206 11.1026C21.3243 9.99616 21.1505 8.47134 20.2266 7.60666C19.632 7.0488 18.7629 6.81636 17.9762 7.02091Z" fill="#FA3913"/>
<path d="M27.3982 5.25504C28.7795 4.9854 30.2889 5.37591 31.3226 6.36146C33.0058 7.89557 33.1887 10.7685 31.7525 12.5351C30.8835 13.6508 29.4747 14.2645 28.0843 14.1994C26.7578 14.1622 25.4497 13.4928 24.663 12.3863C23.7757 11.1683 23.5835 9.49477 24.0867 8.07223C24.5898 6.62179 25.9071 5.51537 27.3982 5.25504ZM27.6726 7.02159C27.1786 7.15176 26.7212 7.43999 26.3919 7.83979C25.5137 8.89972 25.5503 10.6291 26.4926 11.6425C27.0506 12.2469 27.9196 12.5444 28.7246 12.377C29.4381 12.2376 30.0785 11.7541 30.4261 11.1033C31.0207 9.98754 30.8469 8.46273 29.9138 7.59805C29.3192 7.04019 28.4502 6.81704 27.6726 7.02159Z" fill="#FCBD06"/>
<path d="M35.6222 5.79361C36.6742 5.12418 38.0738 4.93823 39.2081 5.51468C39.5649 5.67274 39.8576 5.94238 40.1412 6.21201C40.1503 5.96097 40.1412 5.70064 40.1503 5.4403C40.7632 5.4496 41.3761 5.4403 41.9982 5.4496V13.6501C41.989 14.8867 41.678 16.1977 40.7998 17.0996C39.8393 18.0944 38.3665 18.4012 37.0401 18.1967C35.6222 17.9828 34.3872 16.9322 33.8383 15.6026C34.3872 15.333 34.9635 15.1192 35.5307 14.8681C35.8509 15.6305 36.5003 16.2814 37.3145 16.4301C38.1287 16.5789 39.0709 16.3744 39.6015 15.6863C40.1686 14.9797 40.1686 14.0127 40.1412 13.1481C39.7204 13.5665 39.2355 13.9384 38.6501 14.0778C37.3785 14.4404 35.9789 13.9942 35.0001 13.1202C34.0121 12.2462 33.4267 10.898 33.4816 9.55917C33.509 8.04365 34.3506 6.58391 35.6222 5.79361ZM37.5158 6.98371C36.9577 7.07669 36.4363 7.39281 36.0796 7.8298C35.2197 8.87114 35.2197 10.5354 36.0887 11.5582C36.5827 12.1625 37.3785 12.4972 38.147 12.4135C38.8696 12.3392 39.5374 11.8743 39.8942 11.2327C40.4979 10.1449 40.3973 8.66659 39.5832 7.71823C39.08 7.13248 38.275 6.84425 37.5158 6.98371Z" fill="#3780FF"/>
<path d="M47.706 6.26774C48.8037 5.2264 50.496 4.87309 51.9048 5.42165C53.2404 5.93302 54.0911 7.2254 54.5211 8.55496C52.536 9.39175 50.5601 10.2192 48.575 11.056C48.8494 11.586 49.2702 12.0695 49.8374 12.2647C50.6333 12.553 51.5846 12.4507 52.2524 11.9114C52.5177 11.7069 52.7281 11.4372 52.9294 11.1769C53.4325 11.5209 53.9356 11.8556 54.4387 12.1996C53.7252 13.2875 52.5269 14.0499 51.237 14.1707C49.81 14.3474 48.2914 13.7895 47.3675 12.6552C45.849 10.8701 45.9953 7.87623 47.706 6.26774ZM48.6848 7.9878C48.3738 8.44339 48.2457 9.00125 48.2548 9.54981C49.5813 8.99195 50.9077 8.43409 52.2341 7.86694C52.0146 7.34627 51.484 7.03015 50.9443 6.94647C50.0752 6.78841 49.1696 7.26259 48.6848 7.9878Z" fill="#FA3913"/>
</g>
<defs>
<clipPath id="clip0_187_268">
<rect width="54.5209" height="18.0871" fill="white" transform="translate(0.000610352 0.166992)"/>
</clipPath>
</defs>
</svg>
