<svg width="84" height="29" viewBox="0 0 84 29" fill="none" xmlns="http://www.w3.org/2000/svg">
<g clip-path="url(#clip0_661_285)">
<path d="M10.3454 0.788086H11.0924C13.6856 0.845659 16.2367 1.91077 18.0689 3.79629C17.3924 4.50157 16.7018 5.17806 16.0393 5.88333C15.0105 4.93337 13.7702 4.19931 12.4172 3.94023C10.4158 3.50843 8.25947 3.89705 6.58229 5.06291C4.75008 6.28634 3.50981 8.35898 3.24202 10.5756C2.94605 12.7633 3.55209 15.0663 4.94739 16.7647C6.28632 18.4199 8.32994 19.4562 10.444 19.5282C12.4172 19.6434 14.4749 19.0245 15.9125 17.6139C17.04 16.6208 17.5615 15.1095 17.7306 13.6413C15.391 13.6413 13.0514 13.6557 10.7118 13.6413V10.6763H20.5635C21.0709 13.8572 20.338 17.4412 17.9702 19.7153C16.3917 21.3274 14.2071 22.2773 11.9803 22.4645C9.8239 22.6804 7.59706 22.263 5.68028 21.1978C3.38296 19.9456 1.55075 17.8298 0.648732 15.3398C-0.196905 13.0512 -0.210999 10.4604 0.578263 8.15748C1.29705 6.05605 2.67826 4.19931 4.4541 2.90391C6.15947 1.6229 8.23128 0.917626 10.3454 0.788086Z" fill="#3780FF"/>
<path d="M66.8618 1.53613H69.8779V22.0898C68.8773 22.0898 67.8625 22.1042 66.8618 22.0754C66.8759 15.2386 66.8618 8.38736 66.8618 1.53613Z" fill="#38B137"/>
<path d="M27.2718 8.66088C29.1322 8.30105 31.1476 8.70406 32.6839 9.84114C34.0792 10.8487 35.0517 12.4319 35.3476 14.1591C35.7282 16.1598 35.249 18.3476 33.9805 19.9309C32.6134 21.7012 30.3725 22.6512 28.1879 22.5073C26.1866 22.3921 24.2416 21.3702 23.0577 19.7006C21.7188 17.8582 21.3946 15.325 22.1275 13.166C22.8604 10.8487 24.9322 9.07829 27.2718 8.66088ZM27.6946 11.3956C26.9336 11.5971 26.2289 12.0433 25.7215 12.6766C24.3544 14.3463 24.4389 17.0666 25.947 18.6211C26.8067 19.5135 28.1033 19.9309 29.3013 19.6862C30.4148 19.4847 31.3872 18.7218 31.9228 17.7143C32.853 16.0015 32.5852 13.641 31.1617 12.3024C30.2456 11.4388 28.9067 11.079 27.6946 11.3956Z" fill="#FA3913"/>
<path d="M42.2117 8.66097C44.3399 8.24356 46.6654 8.84808 48.258 10.3738C50.8513 12.7487 51.1332 17.1962 48.9204 19.931C47.5815 21.6582 45.411 22.6081 43.2688 22.5074C41.2251 22.4498 39.2097 21.4135 37.9976 19.7007C36.6305 17.8151 36.3345 15.2243 37.1097 13.0221C37.8849 10.7768 39.9144 9.06398 42.2117 8.66097ZM42.6345 11.3957C41.8735 11.5972 41.1688 12.0434 40.6614 12.6623C39.3084 14.3032 39.3647 16.9803 40.8164 18.5492C41.6761 19.4848 43.0151 19.9453 44.2553 19.6863C45.3547 19.4704 46.3412 18.7219 46.8768 17.7144C47.7929 15.9872 47.5251 13.6267 46.0876 12.2881C45.1714 11.4245 43.8325 11.079 42.6345 11.3957Z" fill="#FCBD06"/>
<path d="M54.8821 9.49525C56.5029 8.45893 58.6592 8.17106 60.4069 9.06345C60.9566 9.30814 61.4076 9.72554 61.8445 10.143C61.8586 9.75433 61.8445 9.35132 61.8586 8.9483C62.8029 8.9627 63.7472 8.9483 64.7056 8.9627V21.6576C64.6915 23.5719 64.2123 25.6014 62.8592 26.9976C61.3794 28.5376 59.1103 29.0126 57.0666 28.696C54.8821 28.3649 52.9794 26.7385 52.1337 24.6802C52.9794 24.2628 53.8673 23.9318 54.7411 23.5432C55.2344 24.7234 56.2351 25.7309 57.4894 25.9612C58.7438 26.1915 60.1955 25.8749 61.0129 24.8098C61.8868 23.7159 61.8868 22.219 61.8445 20.8804C61.1962 21.5281 60.4492 22.1038 59.5472 22.3197C57.5881 22.8811 55.4317 22.1902 53.9237 20.8372C52.4015 19.4842 51.4995 17.3972 51.5841 15.3246C51.6264 12.9784 52.923 10.7187 54.8821 9.49525ZM57.7995 11.3376C56.9398 11.4815 56.1364 11.9709 55.5868 12.6474C54.2619 14.2594 54.2619 16.8359 55.6009 18.4191C56.3619 19.3547 57.5881 19.8729 58.772 19.7433C59.8854 19.6282 60.9143 18.9085 61.4639 17.9154C62.3941 16.2313 62.2391 13.9428 60.9848 12.4747C60.2096 11.5679 58.9693 11.1217 57.7995 11.3376Z" fill="#3780FF"/>
<path d="M73.4992 10.2295C75.1905 8.61745 77.7979 8.07051 79.9684 8.91971C82.0261 9.71135 83.3368 11.712 83.9992 13.7703C80.9408 15.0657 77.8966 16.3467 74.8382 17.6421C75.261 18.4625 75.9093 19.211 76.7831 19.5132C78.0093 19.9594 79.4751 19.8011 80.5039 18.9663C80.9127 18.6496 81.2368 18.2322 81.5469 17.8292C82.3221 18.3617 83.0972 18.8799 83.8724 19.4125C82.7731 21.0965 80.9268 22.2767 78.9395 22.4638C76.7408 22.7373 74.4013 21.8737 72.9778 20.1177C70.6382 17.3542 70.8637 12.7196 73.4992 10.2295ZM75.0073 12.8923C74.5281 13.5975 74.3308 14.4611 74.3449 15.3104C76.3885 14.4468 78.4321 13.5832 80.4757 12.7052C80.1375 11.8991 79.32 11.4098 78.4885 11.2802C77.1496 11.0355 75.7543 11.7696 75.0073 12.8923Z" fill="#FA3913"/>
</g>
<defs>
<clipPath id="clip0_661_285">
<rect width="84" height="28" fill="white" transform="translate(0 0.785156)"/>
</clipPath>
</defs>
</svg>
