<svg width="55" height="19" viewBox="0 0 55 19" fill="none" xmlns="http://www.w3.org/2000/svg">
<g clip-path="url(#clip0_4701_9)">
<path d="M6.71475 0.00195312H7.19959C8.88278 0.0391438 10.5385 0.727171 11.7278 1.94516C11.2887 2.40075 10.8404 2.83774 10.4105 3.29332C9.74268 2.67968 8.93767 2.2055 8.05948 2.03814C6.76049 1.75921 5.36088 2.01025 4.27229 2.76336C3.08308 3.55366 2.27807 4.89252 2.10426 6.32436C1.91216 7.73761 2.30551 9.22523 3.21115 10.3224C4.08019 11.3916 5.40662 12.061 6.77879 12.1075C8.05948 12.1819 9.39506 11.7821 10.3281 10.8709C11.06 10.2294 11.3984 9.25313 11.5082 8.30476C9.98967 8.30476 8.47113 8.31406 6.9526 8.30476V6.38945H13.3469C13.6762 8.44423 13.2005 10.7593 11.6637 12.2284C10.6392 13.2697 9.22125 13.8834 7.7759 14.0042C6.37629 14.1437 4.93093 13.8741 3.68683 13.186C2.19574 12.3771 1.00652 11.0104 0.421065 9.40189C-0.127803 7.92356 -0.136951 6.24998 0.375326 4.76236C0.841864 3.4049 1.73835 2.2055 2.89097 1.36871C3.99786 0.541217 5.34258 0.0856321 6.71475 0.00195312Z" fill="white"/>
<path d="M43.3967 0.485352H45.3544V13.7624C44.7049 13.7624 44.0462 13.7717 43.3967 13.7531C43.4059 9.33672 43.3967 4.91104 43.3967 0.485352V0.485352Z" fill="#38B137"/>
<path d="M17.7012 5.08736C18.9087 4.85492 20.2169 5.11525 21.214 5.84977C22.1196 6.5006 22.7508 7.52335 22.9429 8.63907C23.1899 9.93144 22.8789 11.3447 22.0556 12.3674C21.1682 13.511 19.7137 14.1247 18.2958 14.0317C16.9968 13.9573 15.7345 13.2972 14.966 12.2187C14.097 11.0286 13.8866 9.39218 14.3623 7.99753C14.838 6.5006 16.1827 5.35699 17.7012 5.08736M17.9757 6.85391C17.4817 6.98408 17.0243 7.27231 16.695 7.68141C15.8076 8.75993 15.8625 10.5172 16.8413 11.5213C17.3994 12.0978 18.241 12.3674 19.0185 12.2094C19.7412 12.0792 20.3724 11.5864 20.72 10.9356C21.3238 9.82917 21.15 8.30435 20.226 7.43967C19.6314 6.88181 18.7624 6.64937 17.9757 6.85391Z" fill="#FA3913"/>
<path d="M27.3976 5.08804C28.7789 4.81841 30.2883 5.20891 31.322 6.19447C33.0052 7.72858 33.1881 10.6016 31.7519 12.3681C30.8829 13.4838 29.4741 14.0975 28.0837 14.0324C26.7572 13.9952 25.4491 13.3258 24.6624 12.2193C23.775 11.0014 23.5829 9.32778 24.0861 7.90523C24.5892 6.4548 25.9065 5.34838 27.3976 5.08804M27.672 6.8546C27.178 6.98477 26.7206 7.27299 26.3913 7.67279C25.5131 8.73273 25.5497 10.4621 26.4919 11.4755C27.05 12.0799 27.919 12.3774 28.724 12.2101C29.4375 12.0706 30.0779 11.5871 30.4255 10.9363C31.0201 9.82055 30.8463 8.29574 29.9132 7.43105C29.3186 6.87319 28.4496 6.65005 27.672 6.8546Z" fill="#FCBD06"/>
<path d="M35.6217 5.62662C36.6737 4.95719 38.0733 4.77124 39.2076 5.34769C39.5644 5.50575 39.8571 5.77538 40.1407 6.04502C40.1498 5.79398 40.1407 5.53364 40.1498 5.27331C40.7627 5.28261 41.3756 5.27331 41.9977 5.28261V13.4831C41.9885 14.7197 41.6775 16.0307 40.7993 16.9326C39.8388 17.9274 38.366 18.2342 37.0396 18.0297C35.6217 17.8159 34.3867 16.7652 33.8379 15.4357C34.3867 15.166 34.963 14.9522 35.5302 14.7011C35.8504 15.4635 36.4999 16.1144 37.314 16.2631C38.1282 16.4119 39.0704 16.2074 39.601 15.5193C40.1681 14.8127 40.1681 13.8458 40.1407 12.9811C39.7199 13.3995 39.2351 13.7714 38.6496 13.9108C37.3781 14.2734 35.9784 13.8272 34.9996 12.9532C34.0117 12.0792 33.4262 10.731 33.4811 9.39217C33.5085 7.87665 34.3501 6.41692 35.6217 5.62662M37.5153 6.81672C36.9573 6.9097 36.4358 7.22582 36.0791 7.66281C35.2192 8.70415 35.2192 10.3684 36.0882 11.3912C36.5822 11.9955 37.3781 12.3302 38.1465 12.2466C38.8691 12.1722 39.5369 11.7073 39.8937 11.0658C40.4975 9.97793 40.3968 8.4996 39.5827 7.55124C39.0795 6.96548 38.2745 6.67726 37.5153 6.81672V6.81672Z" fill="white"/>
<path d="M47.7054 6.10075C48.8031 5.05941 50.4954 4.7061 51.9042 5.25466C53.2398 5.76603 54.0905 7.0584 54.5205 8.38797C52.5354 9.22476 50.5595 10.0523 48.5744 10.889C48.8488 11.419 49.2696 11.9025 49.8368 12.0977C50.6327 12.386 51.584 12.2837 52.2518 11.7444C52.5171 11.5399 52.7275 11.2702 52.9287 11.0099C53.4319 11.3539 53.935 11.6886 54.4381 12.0327C53.7246 13.1205 52.5262 13.8829 51.2364 14.0038C49.8093 14.1804 48.2908 13.6226 47.3669 12.4882C45.8483 10.7031 45.9947 7.70924 47.7054 6.10075M48.6842 7.82081C48.3731 8.2764 48.2451 8.83426 48.2542 9.38282C49.5807 8.82496 50.9071 8.2671 52.2335 7.69994C52.014 7.17927 51.4834 6.86315 50.9437 6.77948C50.0746 6.62142 49.169 7.0956 48.6842 7.82081V7.82081Z" fill="#FA3913"/>
</g>
<defs>
<clipPath id="clip0_4701_9">
<rect width="54.5209" height="18.0871" fill="white"/>
</clipPath>
</defs>
</svg>
